<svg width="16.000000" height="16.000000" viewBox="0 0 16 16" fill="none" xmlns="http://www.w3.org/2000/svg" xmlns:xlink="http://www.w3.org/1999/xlink">
	<desc>
			Created with Pixso.
	</desc>
	<defs>
		<clipPath id="clip10_285">
			<rect id="Files" width="16.000000" height="16.000000" transform="translate(0.000000 -0.500000)" fill="white" fill-opacity="0"/>
		</clipPath>
	</defs>
	<g clip-path="url(#clip10_285)">
		<path id="Vector" d="M6.49 0.33C6.32 0.33 6.15 0.4 6.02 0.52L2.52 4.02C2.4 4.15 2.33 4.32 2.33 4.5L2.33 12C2.33 13.47 3.52 14.66 4.99 14.66L10.99 14.66C12.47 14.66 13.66 13.47 13.66 12L13.66 3C13.66 1.52 12.47 0.33 10.99 0.33L6.49 0.33ZM3.66 12L3.66 5.66L6.99 5.66C7.36 5.66 7.66 5.36 7.66 5L7.66 1.66L10.99 1.66C11.73 1.66 12.33 2.26 12.33 3L12.33 12C12.33 12.73 11.73 13.33 10.99 13.33L4.99 13.33C4.26 13.33 3.66 12.73 3.66 12ZM6.33 4.33L6.33 2.1L4.1 4.33L6.33 4.33ZM5.33 8.5C5.33 8.13 5.63 7.83 5.99 7.83L9.99 7.83C10.36 7.83 10.66 8.13 10.66 8.5C10.66 8.86 10.36 9.16 9.99 9.16L5.99 9.16C5.63 9.16 5.33 8.86 5.33 8.5ZM5.33 11C5.33 10.63 5.63 10.33 5.99 10.33L7.99 10.33C8.36 10.33 8.66 10.63 8.66 11C8.66 11.36 8.36 11.66 7.99 11.66L5.99 11.66C5.63 11.66 5.33 11.36 5.33 11Z" fill="#424551" fill-opacity="1.000000" fill-rule="evenodd"/>
	</g>
</svg>
