<svg width="24.000000" height="24.000000" viewBox="0 0 24 24" fill="none" xmlns="http://www.w3.org/2000/svg" xmlns:xlink="http://www.w3.org/1999/xlink">
	<desc>
			Created with Pixso.
	</desc>
	<defs/>
	<path id="Subtract" d="M23.5054 6.23047C23.229 5.20312 22.4185 4.39258 21.3901 4.11523C19.5122 3.60156 12 3.60156 12 3.60156C12 3.60156 4.4873 3.60156 2.60938 4.0957C1.60107 4.37305 0.770996 5.20312 0.494141 6.23047C0 8.10938 0 12.0039 0 12.0039C0 12.0039 0 15.918 0.494141 17.7754C0.770996 18.8047 1.58154 19.6152 2.60938 19.8906C4.50732 20.4062 12 20.4062 12 20.4062C12 20.4062 19.5122 20.4062 21.3901 19.9102C22.4185 19.6348 23.229 18.8242 23.5059 17.7949C24 15.918 24 12.0234 24 12.0234C24 12.0234 24.0195 8.10938 23.5054 6.23047ZM15.855 12.002L9.60791 15.5996L9.60791 8.4043L15.855 12.002Z" clip-rule="evenodd" fill="#787A80" fill-opacity="1.000000" fill-rule="evenodd"/>
</svg>
