<svg width="1920.000000" height="1080.000000" viewBox="0 0 1920 1080" fill="none" xmlns="http://www.w3.org/2000/svg" xmlns:xlink="http://www.w3.org/1999/xlink">
	<desc>
			Created with Pixso.
	</desc>
	<defs>
		<clipPath id="clip2234_8803">
			<rect id="circles" width="284.000000" height="284.000000" transform="translate(-112.000000 896.000000)" fill="white" fill-opacity="0"/>
		</clipPath>
		<clipPath id="clip2234_8808">
			<rect id="dots" width="187.000000" height="137.000000" transform="translate(1763.000000 749.000000)" fill="white" fill-opacity="0"/>
		</clipPath>
		<clipPath id="clip2234_8802">
			<rect id="shapes" width="1920.000000" height="1080.000000" fill="white" fill-opacity="0"/>
		</clipPath>
	</defs>
	<g clip-path="url(#clip2234_8802)">
		<g opacity="0.200000">
			<g clip-path="url(#clip2234_8803)">
				<path id="Vector" d="M30.0977 896C-48.4556 896 -112 959.544 -112 1038.1C-112 1116.46 -48.4556 1180.2 30.0977 1180.2C108.456 1180.2 172.195 1116.65 172.195 1038.1C172 959.544 108.456 896 30.0977 896ZM30.0977 1171.03C-43.3877 1171.03 -102.839 1111.58 -102.839 1038.1C-102.839 964.612 -43.3877 905.161 30.0977 905.161C103.583 905.161 163.034 964.612 163.034 1038.1C163.034 1111.39 103.388 1171.03 30.0977 1171.03Z" fill="#FFFFFF" fill-opacity="1.000000" fill-rule="nonzero"/>
				<path id="Vector" d="M30.0986 926.603C-31.3013 926.603 -81.2012 976.502 -81.2012 1037.9C-81.2012 1099.3 -31.3013 1149.2 30.0986 1149.2C91.499 1149.2 141.398 1099.5 141.398 1038.1C141.398 976.502 91.499 926.603 30.0986 926.603ZM30.0986 1132.24C-21.9453 1132.24 -64.2432 1089.95 -64.2432 1037.9C-64.2432 985.858 -21.9453 943.561 30.0986 943.561C82.1426 943.561 124.44 985.858 124.44 1037.9C124.44 1089.95 82.1426 1132.24 30.0986 1132.24Z" fill="#FFFFFF" fill-opacity="1.000000" fill-rule="nonzero"/>
				<path id="Vector" d="M30.0981 975.527C-4.40283 975.527 -32.4717 1003.6 -32.4717 1038.1C-32.4717 1072.6 -4.59814 1100.67 30.0981 1100.67C64.5991 1100.67 92.6675 1072.6 92.6675 1038.1C92.4727 1003.6 64.5991 975.527 30.0981 975.527ZM30.0981 1071.62C11.5806 1071.62 -3.42822 1056.61 -3.42822 1038.1C-3.42822 1019.58 11.5806 1004.57 30.0981 1004.57C48.6157 1004.57 63.6245 1019.58 63.6245 1038.1C63.6245 1056.61 48.6157 1071.62 30.0981 1071.62Z" fill="#FFFFFF" fill-opacity="1.000000" fill-rule="nonzero"/>
			</g>
		</g>
		<g opacity="0.800000">
			<g clip-path="url(#clip2234_8808)">
				<path id="Vector" d="M1768.34 789.265C1768.34 790.784 1767.19 791.924 1765.67 791.924C1764.14 791.924 1763 790.784 1763 789.265C1763 787.745 1764.14 786.605 1765.67 786.605C1767.19 786.605 1768.34 787.872 1768.34 789.265Z" fill="#FFFFFF" fill-opacity="1.000000" fill-rule="nonzero"/>
				<path id="Vector" d="M1791.08 789.265C1791.08 790.784 1789.93 791.924 1788.41 791.924C1786.88 791.924 1785.74 790.784 1785.74 789.265C1785.74 787.745 1786.88 786.605 1788.41 786.605C1789.81 786.605 1791.08 787.872 1791.08 789.265Z" fill="#FFFFFF" fill-opacity="1.000000" fill-rule="nonzero"/>
				<path id="Vector" d="M1813.69 789.265C1813.69 790.784 1812.54 791.924 1811.02 791.924C1809.5 791.924 1808.35 790.784 1808.35 789.265C1808.35 787.745 1809.5 786.605 1811.02 786.605C1812.54 786.605 1813.69 787.872 1813.69 789.265Z" fill="#FFFFFF" fill-opacity="1.000000" fill-rule="nonzero"/>
				<path id="Vector" d="M1836.43 789.265C1836.43 790.784 1835.28 791.924 1833.76 791.924C1832.24 791.924 1831.09 790.784 1831.09 789.265C1831.09 787.745 1832.24 786.605 1833.76 786.605C1835.28 786.605 1836.43 787.872 1836.43 789.265Z" fill="#FFFFFF" fill-opacity="1.000000" fill-rule="nonzero"/>
				<path id="Vector" d="M1859.17 789.265C1859.17 790.784 1858.02 791.924 1856.5 791.924C1854.98 791.924 1853.83 790.784 1853.83 789.265C1853.83 787.745 1854.98 786.605 1856.5 786.605C1857.9 786.605 1859.17 787.872 1859.17 789.265Z" fill="#FFFFFF" fill-opacity="1.000000" fill-rule="nonzero"/>
				<path id="Vector" d="M1881.91 789.265C1881.91 790.784 1880.76 791.924 1879.24 791.924C1877.72 791.924 1876.57 790.784 1876.57 789.265C1876.57 787.745 1877.72 786.605 1879.24 786.605C1880.76 786.605 1881.91 787.872 1881.91 789.265Z" fill="#FFFFFF" fill-opacity="1.000000" fill-rule="nonzero"/>
				<path id="Vector" d="M1904.52 789.265C1904.52 790.784 1903.38 791.924 1901.85 791.924C1900.33 791.924 1899.18 790.784 1899.18 789.265C1899.18 787.745 1900.33 786.605 1901.85 786.605C1903.38 786.605 1904.52 787.872 1904.52 789.265Z" fill="#FFFFFF" fill-opacity="1.000000" fill-rule="nonzero"/>
				<path id="Vector" d="M1927.26 789.265C1927.26 790.784 1926.12 791.924 1924.59 791.924C1923.07 791.924 1921.92 790.784 1921.92 789.265C1921.92 787.745 1923.07 786.605 1924.59 786.605C1926.12 786.605 1927.26 787.872 1927.26 789.265Z" fill="#FFFFFF" fill-opacity="1.000000" fill-rule="nonzero"/>
				<path id="Vector" d="M1950 789.265C1950 790.784 1948.86 791.924 1947.33 791.924C1945.81 791.924 1944.66 790.784 1944.66 789.265C1944.66 787.745 1945.81 786.605 1947.33 786.605C1948.73 786.605 1950 787.872 1950 789.265Z" fill="#FFFFFF" fill-opacity="1.000000" fill-rule="nonzero"/>
				<path id="Vector" d="M1768.34 808.131C1768.34 809.65 1767.19 810.79 1765.67 810.79C1764.14 810.79 1763 809.65 1763 808.131C1763 806.611 1764.14 805.472 1765.67 805.472C1767.19 805.472 1768.34 806.611 1768.34 808.131Z" fill="#FFFFFF" fill-opacity="1.000000" fill-rule="nonzero"/>
				<path id="Vector" d="M1791.08 808.131C1791.08 809.65 1789.93 810.79 1788.41 810.79C1786.88 810.79 1785.74 809.65 1785.74 808.131C1785.74 806.611 1786.88 805.472 1788.41 805.472C1789.81 805.472 1791.08 806.611 1791.08 808.131Z" fill="#FFFFFF" fill-opacity="1.000000" fill-rule="nonzero"/>
				<path id="Vector" d="M1813.69 808.131C1813.69 809.65 1812.54 810.79 1811.02 810.79C1809.5 810.79 1808.35 809.65 1808.35 808.131C1808.35 806.611 1809.5 805.472 1811.02 805.472C1812.54 805.472 1813.69 806.611 1813.69 808.131Z" fill="#FFFFFF" fill-opacity="1.000000" fill-rule="nonzero"/>
				<path id="Vector" d="M1836.43 808.131C1836.43 809.65 1835.28 810.79 1833.76 810.79C1832.24 810.79 1831.09 809.65 1831.09 808.131C1831.09 806.611 1832.24 805.472 1833.76 805.472C1835.28 805.472 1836.43 806.611 1836.43 808.131Z" fill="#FFFFFF" fill-opacity="1.000000" fill-rule="nonzero"/>
				<path id="Vector" d="M1859.17 808.131C1859.17 809.65 1858.02 810.79 1856.5 810.79C1854.98 810.79 1853.83 809.65 1853.83 808.131C1853.83 806.611 1854.98 805.472 1856.5 805.472C1857.9 805.472 1859.17 806.611 1859.17 808.131Z" fill="#FFFFFF" fill-opacity="1.000000" fill-rule="nonzero"/>
				<path id="Vector" d="M1881.91 808.131C1881.91 809.65 1880.76 810.79 1879.24 810.79C1877.72 810.79 1876.57 809.65 1876.57 808.131C1876.57 806.611 1877.72 805.472 1879.24 805.472C1880.76 805.472 1881.91 806.611 1881.91 808.131Z" fill="#FFFFFF" fill-opacity="1.000000" fill-rule="nonzero"/>
				<path id="Vector" d="M1904.52 808.131C1904.52 809.65 1903.38 810.79 1901.85 810.79C1900.33 810.79 1899.18 809.65 1899.18 808.131C1899.18 806.611 1900.33 805.472 1901.85 805.472C1903.38 805.472 1904.52 806.611 1904.52 808.131Z" fill="#FFFFFF" fill-opacity="1.000000" fill-rule="nonzero"/>
				<path id="Vector" d="M1927.26 808.131C1927.26 809.65 1926.12 810.79 1924.59 810.79C1923.07 810.79 1921.92 809.65 1921.92 808.131C1921.92 806.611 1923.07 805.472 1924.59 805.472C1926.12 805.472 1927.26 806.611 1927.26 808.131Z" fill="#FFFFFF" fill-opacity="1.000000" fill-rule="nonzero"/>
				<path id="Vector" d="M1950 808.131C1950 809.65 1948.86 810.79 1947.33 810.79C1945.81 810.79 1944.66 809.65 1944.66 808.131C1944.66 806.611 1945.81 805.472 1947.33 805.472C1948.73 805.472 1950 806.611 1950 808.131Z" fill="#FFFFFF" fill-opacity="1.000000" fill-rule="nonzero"/>
				<path id="Vector" d="M1768.34 751.659C1768.34 753.179 1767.19 754.318 1765.67 754.318C1764.14 754.318 1763 753.179 1763 751.659C1763 750.14 1764.14 749 1765.67 749C1767.19 749 1768.34 750.14 1768.34 751.659Z" fill="#FFFFFF" fill-opacity="1.000000" fill-rule="nonzero"/>
				<path id="Vector" d="M1791.08 751.659C1791.08 753.179 1789.93 754.318 1788.41 754.318C1786.88 754.318 1785.74 753.179 1785.74 751.659C1785.74 750.14 1786.88 749 1788.41 749C1789.81 749 1791.08 750.14 1791.08 751.659Z" fill="#FFFFFF" fill-opacity="1.000000" fill-rule="nonzero"/>
				<path id="Vector" d="M1813.69 751.659C1813.69 753.179 1812.54 754.318 1811.02 754.318C1809.5 754.318 1808.35 753.179 1808.35 751.659C1808.35 750.14 1809.62 749 1811.02 749C1812.54 749 1813.69 750.14 1813.69 751.659Z" fill="#FFFFFF" fill-opacity="1.000000" fill-rule="nonzero"/>
				<path id="Vector" d="M1836.43 751.659C1836.43 753.179 1835.28 754.318 1833.76 754.318C1832.24 754.318 1831.09 753.179 1831.09 751.659C1831.09 750.14 1832.36 749 1833.76 749C1835.16 749 1836.43 750.14 1836.43 751.659Z" fill="#FFFFFF" fill-opacity="1.000000" fill-rule="nonzero"/>
				<path id="Vector" d="M1859.17 751.659C1859.17 753.179 1858.02 754.318 1856.5 754.318C1854.98 754.318 1853.83 753.179 1853.83 751.659C1853.83 750.14 1854.98 749 1856.5 749C1857.9 749 1859.17 750.14 1859.17 751.659Z" fill="#FFFFFF" fill-opacity="1.000000" fill-rule="nonzero"/>
				<path id="Vector" d="M1881.91 751.659C1881.91 753.179 1880.76 754.318 1879.24 754.318C1877.72 754.318 1876.57 753.179 1876.57 751.659C1876.57 750.14 1877.72 749 1879.24 749C1880.76 749 1881.91 750.14 1881.91 751.659Z" fill="#FFFFFF" fill-opacity="1.000000" fill-rule="nonzero"/>
				<path id="Vector" d="M1904.52 751.659C1904.52 753.179 1903.38 754.318 1901.85 754.318C1900.33 754.318 1899.18 753.179 1899.18 751.659C1899.18 750.14 1900.33 749 1901.85 749C1903.38 749 1904.52 750.14 1904.52 751.659Z" fill="#FFFFFF" fill-opacity="1.000000" fill-rule="nonzero"/>
				<path id="Vector" d="M1927.26 751.659C1927.26 753.179 1926.12 754.318 1924.59 754.318C1923.07 754.318 1921.92 753.179 1921.92 751.659C1921.92 750.14 1923.07 749 1924.59 749C1926.12 749 1927.26 750.14 1927.26 751.659Z" fill="#FFFFFF" fill-opacity="1.000000" fill-rule="nonzero"/>
				<path id="Vector" d="M1950 751.659C1950 753.179 1948.86 754.318 1947.33 754.318C1945.81 754.318 1944.66 753.179 1944.66 751.659C1944.66 750.14 1945.81 749 1947.33 749C1948.73 749 1950 750.14 1950 751.659Z" fill="#FFFFFF" fill-opacity="1.000000" fill-rule="nonzero"/>
				<path id="Vector" d="M1768.34 770.525C1768.34 772.045 1767.19 773.185 1765.67 773.185C1764.14 773.185 1763 771.918 1763 770.525C1763 769.006 1764.14 767.866 1765.67 767.866C1767.19 767.866 1768.34 769.006 1768.34 770.525Z" fill="#FFFFFF" fill-opacity="1.000000" fill-rule="nonzero"/>
				<path id="Vector" d="M1791.08 770.525C1791.08 772.045 1789.93 773.185 1788.41 773.185C1786.88 773.185 1785.74 772.045 1785.74 770.525C1785.74 769.006 1786.88 767.866 1788.41 767.866C1789.81 767.866 1791.08 769.006 1791.08 770.525Z" fill="#FFFFFF" fill-opacity="1.000000" fill-rule="nonzero"/>
				<path id="Vector" d="M1813.69 770.525C1813.69 772.045 1812.54 773.185 1811.02 773.185C1809.5 773.185 1808.35 772.045 1808.35 770.525C1808.35 769.006 1809.5 767.866 1811.02 767.866C1812.54 767.866 1813.69 769.006 1813.69 770.525Z" fill="#FFFFFF" fill-opacity="1.000000" fill-rule="nonzero"/>
				<path id="Vector" d="M1836.43 770.525C1836.43 772.045 1835.28 773.185 1833.76 773.185C1832.24 773.185 1831.09 772.045 1831.09 770.525C1831.09 769.006 1832.24 767.866 1833.76 767.866C1835.28 767.866 1836.43 769.006 1836.43 770.525Z" fill="#FFFFFF" fill-opacity="1.000000" fill-rule="nonzero"/>
				<path id="Vector" d="M1859.17 770.525C1859.17 772.045 1858.02 773.185 1856.5 773.185C1854.98 773.185 1853.83 772.045 1853.83 770.525C1853.83 769.006 1854.98 767.866 1856.5 767.866C1857.9 767.866 1859.17 769.006 1859.17 770.525Z" fill="#FFFFFF" fill-opacity="1.000000" fill-rule="nonzero"/>
				<path id="Vector" d="M1881.91 770.525C1881.91 772.045 1880.76 773.185 1879.24 773.185C1877.72 773.185 1876.57 772.045 1876.57 770.525C1876.57 769.006 1877.72 767.866 1879.24 767.866C1880.76 767.866 1881.91 769.006 1881.91 770.525Z" fill="#FFFFFF" fill-opacity="1.000000" fill-rule="nonzero"/>
				<path id="Vector" d="M1904.52 770.525C1904.52 772.045 1903.38 773.185 1901.85 773.185C1900.33 773.185 1899.18 772.045 1899.18 770.525C1899.18 769.006 1900.33 767.866 1901.85 767.866C1903.38 767.866 1904.52 769.006 1904.52 770.525Z" fill="#FFFFFF" fill-opacity="1.000000" fill-rule="nonzero"/>
				<path id="Vector" d="M1927.26 770.525C1927.26 772.045 1926.12 773.185 1924.59 773.185C1923.07 773.185 1921.92 772.045 1921.92 770.525C1921.92 769.006 1923.07 767.866 1924.59 767.866C1926.12 767.866 1927.26 769.006 1927.26 770.525Z" fill="#FFFFFF" fill-opacity="1.000000" fill-rule="nonzero"/>
				<path id="Vector" d="M1950 770.525C1950 772.045 1948.86 773.185 1947.33 773.185C1945.81 773.185 1944.66 772.045 1944.66 770.525C1944.66 769.006 1945.81 767.866 1947.33 767.866C1948.73 767.866 1950 769.006 1950 770.525Z" fill="#FFFFFF" fill-opacity="1.000000" fill-rule="nonzero"/>
				<path id="Vector" d="M1768.34 826.87C1768.34 828.39 1767.19 829.529 1765.67 829.529C1764.14 829.529 1763 828.39 1763 826.87C1763 825.351 1764.14 824.211 1765.67 824.211C1767.19 824.211 1768.34 825.478 1768.34 826.87Z" fill="#FFFFFF" fill-opacity="1.000000" fill-rule="nonzero"/>
				<path id="Vector" d="M1791.08 826.87C1791.08 828.39 1789.93 829.529 1788.41 829.529C1786.88 829.529 1785.74 828.39 1785.74 826.87C1785.74 825.351 1786.88 824.211 1788.41 824.211C1789.81 824.211 1791.08 825.478 1791.08 826.87Z" fill="#FFFFFF" fill-opacity="1.000000" fill-rule="nonzero"/>
				<path id="Vector" d="M1813.69 826.87C1813.69 828.39 1812.54 829.529 1811.02 829.529C1809.5 829.529 1808.35 828.39 1808.35 826.87C1808.35 825.351 1809.5 824.211 1811.02 824.211C1812.54 824.211 1813.69 825.478 1813.69 826.87Z" fill="#FFFFFF" fill-opacity="1.000000" fill-rule="nonzero"/>
				<path id="Vector" d="M1836.43 826.87C1836.43 828.39 1835.28 829.529 1833.76 829.529C1832.24 829.529 1831.09 828.39 1831.09 826.87C1831.09 825.351 1832.24 824.211 1833.76 824.211C1835.28 824.211 1836.43 825.478 1836.43 826.87Z" fill="#FFFFFF" fill-opacity="1.000000" fill-rule="nonzero"/>
				<path id="Vector" d="M1859.17 826.87C1859.17 828.39 1858.02 829.529 1856.5 829.529C1854.98 829.529 1853.83 828.39 1853.83 826.87C1853.83 825.351 1854.98 824.211 1856.5 824.211C1857.9 824.211 1859.17 825.478 1859.17 826.87Z" fill="#FFFFFF" fill-opacity="1.000000" fill-rule="nonzero"/>
				<path id="Vector" d="M1881.91 826.87C1881.91 828.39 1880.76 829.529 1879.24 829.529C1877.72 829.529 1876.57 828.39 1876.57 826.87C1876.57 825.351 1877.72 824.211 1879.24 824.211C1880.76 824.211 1881.91 825.478 1881.91 826.87Z" fill="#FFFFFF" fill-opacity="1.000000" fill-rule="nonzero"/>
				<path id="Vector" d="M1904.52 826.87C1904.52 828.39 1903.38 829.529 1901.85 829.529C1900.33 829.529 1899.18 828.39 1899.18 826.87C1899.18 825.351 1900.33 824.211 1901.85 824.211C1903.38 824.211 1904.52 825.478 1904.52 826.87Z" fill="#FFFFFF" fill-opacity="1.000000" fill-rule="nonzero"/>
				<path id="Vector" d="M1927.26 826.87C1927.26 828.39 1926.12 829.529 1924.59 829.529C1923.07 829.529 1921.92 828.39 1921.92 826.87C1921.92 825.351 1923.07 824.211 1924.59 824.211C1926.12 824.211 1927.26 825.478 1927.26 826.87Z" fill="#FFFFFF" fill-opacity="1.000000" fill-rule="nonzero"/>
				<path id="Vector" d="M1950 826.87C1950 828.39 1948.86 829.529 1947.33 829.529C1945.81 829.529 1944.66 828.39 1944.66 826.87C1944.66 825.351 1945.81 824.211 1947.33 824.211C1948.73 824.211 1950 825.478 1950 826.87Z" fill="#FFFFFF" fill-opacity="1.000000" fill-rule="nonzero"/>
				<path id="Vector" d="M1768.34 845.735C1768.34 847.255 1767.19 848.395 1765.67 848.395C1764.14 848.395 1763 847.255 1763 845.735C1763 844.216 1764.14 843.076 1765.67 843.076C1767.19 843.076 1768.34 844.216 1768.34 845.735Z" fill="#FFFFFF" fill-opacity="1.000000" fill-rule="nonzero"/>
				<path id="Vector" d="M1791.08 845.735C1791.08 847.255 1789.93 848.395 1788.41 848.395C1786.88 848.395 1785.74 847.255 1785.74 845.735C1785.74 844.216 1786.88 843.076 1788.41 843.076C1789.81 843.076 1791.08 844.216 1791.08 845.735Z" fill="#FFFFFF" fill-opacity="1.000000" fill-rule="nonzero"/>
				<path id="Vector" d="M1813.69 845.735C1813.69 847.255 1812.54 848.395 1811.02 848.395C1809.5 848.395 1808.35 847.255 1808.35 845.735C1808.35 844.216 1809.5 843.076 1811.02 843.076C1812.54 843.076 1813.69 844.216 1813.69 845.735Z" fill="#FFFFFF" fill-opacity="1.000000" fill-rule="nonzero"/>
				<path id="Vector" d="M1836.43 845.735C1836.43 847.204 1835.23 848.395 1833.76 848.395C1832.29 848.395 1831.09 847.204 1831.09 845.735C1831.09 844.267 1832.29 843.076 1833.76 843.076C1835.23 843.076 1836.43 844.267 1836.43 845.735Z" fill="#FFFFFF" fill-opacity="1.000000" fill-rule="evenodd"/>
				<path id="Vector" d="M1859.17 845.735C1859.17 847.255 1858.02 848.395 1856.5 848.395C1854.98 848.395 1853.83 847.255 1853.83 845.735C1853.83 844.216 1854.98 843.076 1856.5 843.076C1857.9 843.076 1859.17 844.216 1859.17 845.735Z" fill="#FFFFFF" fill-opacity="1.000000" fill-rule="nonzero"/>
				<path id="Vector" d="M1881.91 845.735C1881.91 847.255 1880.76 848.395 1879.24 848.395C1877.72 848.395 1876.57 847.255 1876.57 845.735C1876.57 844.216 1877.72 843.076 1879.24 843.076C1880.76 843.076 1881.91 844.216 1881.91 845.735Z" fill="#FFFFFF" fill-opacity="1.000000" fill-rule="nonzero"/>
				<path id="Vector" d="M1904.52 845.735C1904.52 847.255 1903.38 848.395 1901.85 848.395C1900.33 848.395 1899.18 847.255 1899.18 845.735C1899.18 844.216 1900.33 843.076 1901.85 843.076C1903.38 843.076 1904.52 844.216 1904.52 845.735Z" fill="#FFFFFF" fill-opacity="1.000000" fill-rule="nonzero"/>
				<path id="Vector" d="M1927.26 845.735C1927.26 847.204 1926.07 848.395 1924.59 848.395C1923.12 848.395 1921.92 847.204 1921.92 845.735C1921.92 844.267 1923.12 843.076 1924.59 843.076C1926.07 843.076 1927.26 844.267 1927.26 845.735Z" fill="#FFFFFF" fill-opacity="1.000000" fill-rule="evenodd"/>
				<path id="Vector" d="M1950 845.735C1950 847.255 1948.86 848.395 1947.33 848.395C1945.81 848.395 1944.66 847.255 1944.66 845.735C1944.66 844.216 1945.81 843.076 1947.33 843.076C1948.73 843.076 1950 844.216 1950 845.735Z" fill="#FFFFFF" fill-opacity="1.000000" fill-rule="nonzero"/>
				<path id="Vector" d="M1768.34 864.602C1768.34 866.121 1767.19 867.261 1765.67 867.261C1764.14 867.261 1763 866.121 1763 864.602C1763 863.082 1764.14 861.942 1765.67 861.942C1767.19 861.942 1768.34 863.082 1768.34 864.602Z" fill="#FFFFFF" fill-opacity="1.000000" fill-rule="nonzero"/>
				<path id="Vector" d="M1791.08 864.602C1791.08 866.121 1789.93 867.261 1788.41 867.261C1786.88 867.261 1785.74 866.121 1785.74 864.602C1785.74 863.082 1786.88 861.942 1788.41 861.942C1789.81 861.942 1791.08 863.082 1791.08 864.602Z" fill="#FFFFFF" fill-opacity="1.000000" fill-rule="nonzero"/>
				<path id="Vector" d="M1813.69 864.602C1813.69 866.121 1812.54 867.261 1811.02 867.261C1809.5 867.261 1808.35 866.121 1808.35 864.602C1808.35 863.082 1809.5 861.942 1811.02 861.942C1812.54 861.942 1813.69 863.082 1813.69 864.602Z" fill="#FFFFFF" fill-opacity="1.000000" fill-rule="nonzero"/>
				<path id="Vector" d="M1836.43 864.602C1836.43 866.121 1835.28 867.261 1833.76 867.261C1832.24 867.261 1831.09 866.121 1831.09 864.602C1831.09 863.082 1832.24 861.942 1833.76 861.942C1835.28 861.942 1836.43 863.082 1836.43 864.602Z" fill="#FFFFFF" fill-opacity="1.000000" fill-rule="nonzero"/>
				<path id="Vector" d="M1859.17 864.602C1859.17 866.121 1858.02 867.261 1856.5 867.261C1854.98 867.261 1853.83 866.121 1853.83 864.602C1853.83 863.082 1854.98 861.942 1856.5 861.942C1857.9 861.942 1859.17 863.082 1859.17 864.602Z" fill="#FFFFFF" fill-opacity="1.000000" fill-rule="nonzero"/>
				<path id="Vector" d="M1881.91 864.602C1881.91 866.121 1880.76 867.261 1879.24 867.261C1877.72 867.261 1876.57 866.121 1876.57 864.602C1876.57 863.082 1877.72 861.942 1879.24 861.942C1880.76 861.942 1881.91 863.082 1881.91 864.602Z" fill="#FFFFFF" fill-opacity="1.000000" fill-rule="nonzero"/>
				<path id="Vector" d="M1904.52 864.602C1904.52 866.121 1903.38 867.261 1901.85 867.261C1900.33 867.261 1899.18 866.121 1899.18 864.602C1899.18 863.082 1900.33 861.942 1901.85 861.942C1903.38 861.942 1904.52 863.082 1904.52 864.602Z" fill="#FFFFFF" fill-opacity="1.000000" fill-rule="nonzero"/>
				<path id="Vector" d="M1927.26 864.602C1927.26 866.121 1926.12 867.261 1924.59 867.261C1923.07 867.261 1921.92 866.121 1921.92 864.602C1921.92 863.082 1923.07 861.942 1924.59 861.942C1926.12 861.942 1927.26 863.082 1927.26 864.602Z" fill="#FFFFFF" fill-opacity="1.000000" fill-rule="nonzero"/>
				<path id="Vector" d="M1950 864.602C1950 866.121 1948.86 867.261 1947.33 867.261C1945.81 867.261 1944.66 866.121 1944.66 864.602C1944.66 863.082 1945.81 861.942 1947.33 861.942C1948.73 861.942 1950 863.082 1950 864.602Z" fill="#FFFFFF" fill-opacity="1.000000" fill-rule="nonzero"/>
				<path id="Vector" d="M1768.34 883.341C1768.34 884.86 1767.19 886 1765.67 886C1764.14 886 1763 884.86 1763 883.341C1763 881.821 1764.14 880.682 1765.67 880.682C1767.19 880.682 1768.34 881.948 1768.34 883.341Z" fill="#FFFFFF" fill-opacity="1.000000" fill-rule="nonzero"/>
				<path id="Vector" d="M1791.08 883.341C1791.08 884.86 1789.93 886 1788.41 886C1786.88 886 1785.74 884.86 1785.74 883.341C1785.74 881.821 1786.88 880.682 1788.41 880.682C1789.81 880.682 1791.08 881.948 1791.08 883.341Z" fill="#FFFFFF" fill-opacity="1.000000" fill-rule="nonzero"/>
				<path id="Vector" d="M1813.69 883.341C1813.69 884.86 1812.54 886 1811.02 886C1809.5 886 1808.35 884.86 1808.35 883.341C1808.35 881.821 1809.5 880.682 1811.02 880.682C1812.54 880.682 1813.69 881.948 1813.69 883.341Z" fill="#FFFFFF" fill-opacity="1.000000" fill-rule="nonzero"/>
				<path id="Vector" d="M1836.43 883.341C1836.43 884.86 1835.28 886 1833.76 886C1832.24 886 1831.09 884.86 1831.09 883.341C1831.09 881.821 1832.24 880.682 1833.76 880.682C1835.28 880.682 1836.43 881.948 1836.43 883.341Z" fill="#FFFFFF" fill-opacity="1.000000" fill-rule="nonzero"/>
				<path id="Vector" d="M1859.17 883.341C1859.17 884.86 1858.02 886 1856.5 886C1854.98 886 1853.83 884.86 1853.83 883.341C1853.83 881.821 1854.98 880.682 1856.5 880.682C1857.9 880.682 1859.17 881.948 1859.17 883.341Z" fill="#FFFFFF" fill-opacity="1.000000" fill-rule="nonzero"/>
				<path id="Vector" d="M1881.91 883.341C1881.91 884.86 1880.76 886 1879.24 886C1877.72 886 1876.57 884.86 1876.57 883.341C1876.57 881.821 1877.72 880.682 1879.24 880.682C1880.76 880.682 1881.91 881.948 1881.91 883.341Z" fill="#FFFFFF" fill-opacity="1.000000" fill-rule="nonzero"/>
				<path id="Vector" d="M1904.52 883.341C1904.52 884.86 1903.38 886 1901.85 886C1900.33 886 1899.18 884.86 1899.18 883.341C1899.18 881.821 1900.33 880.682 1901.85 880.682C1903.38 880.682 1904.52 881.948 1904.52 883.341Z" fill="#FFFFFF" fill-opacity="1.000000" fill-rule="nonzero"/>
				<path id="Vector" d="M1927.26 883.341C1927.26 884.86 1926.12 886 1924.59 886C1923.07 886 1921.92 884.86 1921.92 883.341C1921.92 881.821 1923.07 880.682 1924.59 880.682C1926.12 880.682 1927.26 881.948 1927.26 883.341Z" fill="#FFFFFF" fill-opacity="1.000000" fill-rule="nonzero"/>
				<path id="Vector" d="M1950 883.341C1950 884.86 1948.86 886 1947.33 886C1945.81 886 1944.66 884.86 1944.66 883.341C1944.66 881.821 1945.81 880.682 1947.33 880.682C1948.73 880.682 1950 881.948 1950 883.341Z" fill="#FFFFFF" fill-opacity="1.000000" fill-rule="nonzero"/>
			</g>
		</g>
		<g opacity="0.300000">
			<path id="Vector" d="M1761.81 75.2207L1771.47 84.8799L1745.78 110.563L1720.1 84.8799L1729.68 75.2939L1745.71 91.3193L1761.81 75.2207Z" fill="#FFFFFF" fill-opacity="1.000000" fill-rule="nonzero"/>
			<path id="Vector" d="M1761.81 40.5381L1771.39 50.124L1745.71 75.8076L1720.1 50.1973L1729.76 40.5381L1745.78 56.5635L1761.81 40.5381Z" fill="#FFFFFF" fill-opacity="1.000000" fill-rule="nonzero"/>
			<path id="Vector" d="M1761.73 5.78125L1771.39 15.4404L1745.78 41.0508L1720.1 15.3672L1729.68 5.78125L1745.71 21.8066L1761.73 5.78125Z" fill="#FFFFFF" fill-opacity="1.000000" fill-rule="nonzero"/>
			<path id="Vector" d="M1761.81 -28.9766L1771.46 -19.3174L1745.78 6.36621L1720.1 -19.3174L1729.76 -28.9766L1745.78 -12.9512L1761.81 -28.9766Z" fill="#FFFFFF" fill-opacity="1.000000" fill-rule="nonzero"/>
		</g>
		<g opacity="0.300000">
			<path id="Vector" d="M794 808.553C780.07 822.482 757.376 822.482 743.447 808.553C729.518 794.623 729.518 771.93 743.447 758L794 808.553Z" fill="#FFFFFF" fill-opacity="1.000000" fill-rule="nonzero"/>
		</g>
		<g opacity="0.300000">
			<path id="Vector" d="M848.486 529.891C859.205 529.891 867.937 521.165 867.937 510.453C867.937 499.742 859.205 491.017 848.486 491.017L848.486 529.891Z" fill="#FFFFFF" fill-opacity="1.000000" fill-rule="nonzero"/>
			<path id="Vector" d="M818.142 529.891C828.86 529.891 837.592 521.165 837.592 510.453C837.592 499.742 828.86 491.017 818.142 491.017L818.142 529.891Z" fill="#FFFFFF" fill-opacity="1.000000" fill-rule="nonzero"/>
			<path id="Vector" d="M787.797 529.891C798.516 529.891 807.248 521.165 807.248 510.453C807.248 499.742 798.516 491.017 787.797 491.017L787.797 529.891Z" fill="#FFFFFF" fill-opacity="1.000000" fill-rule="nonzero"/>
		</g>
		<g opacity="0.300000">
			<path id="Vector" d="M146.301 144.921L146.301 133L178 133L178 164.699L166.169 164.699L166.169 144.921L146.301 144.921Z" fill="#FFFFFF" fill-opacity="1.000000" fill-rule="nonzero"/>
			<path id="Vector" d="M124.899 166.324L124.899 154.494L156.598 154.494L156.598 186.103L144.677 186.103L144.677 166.324L124.899 166.324Z" fill="#FFFFFF" fill-opacity="1.000000" fill-rule="nonzero"/>
			<path id="Vector" d="M103.495 187.818L103.495 175.897L135.104 175.897L135.104 207.597L123.273 207.597L123.273 187.818L103.495 187.818Z" fill="#FFFFFF" fill-opacity="1.000000" fill-rule="nonzero"/>
			<path id="Vector" d="M82.0005 209.222L82.0005 197.301L113.699 197.301L113.699 229L101.778 229L101.778 209.222L82.0005 209.222Z" fill="#FFFFFF" fill-opacity="1.000000" fill-rule="nonzero"/>
		</g>
	</g>
</svg>
