<svg width="2034.000000" height="1215.000000" viewBox="0 0 2034 1215" fill="none" xmlns="http://www.w3.org/2000/svg" xmlns:xlink="http://www.w3.org/1999/xlink">
	<desc>
			Created with Pixso.
	</desc>
	<defs>
		<clipPath id="clip44_550">
			<rect id="circles" width="284.000000" height="284.000000" transform="translate(0.000000 931.000000)" fill="white" fill-opacity="0"/>
		</clipPath>
		<clipPath id="clip44_551">
			<rect id="dots" width="187.000000" height="137.000000" transform="translate(1847.000000 794.000000)" fill="white" fill-opacity="0"/>
		</clipPath>
	</defs>
	<g opacity="0.200000">
		<g clip-path="url(#clip44_550)">
			<path id="Vector" d="M142.09 931C63.54 931 0 994.54 0 1073.1C0 1151.46 63.54 1215.19 142.09 1215.19C220.45 1215.19 284.19 1151.65 284.19 1073.1C284 994.54 220.45 931 142.09 931ZM142.09 1206.03C68.61 1206.03 9.16 1146.57 9.16 1073.1C9.16 999.61 68.61 940.16 142.09 940.16C215.58 940.16 275.03 999.61 275.03 1073.1C275.03 1146.39 215.38 1206.03 142.09 1206.03Z" fill="#FFFFFF" fill-opacity="1.000000" fill-rule="nonzero"/>
			<path id="Vector" d="M142.09 961.6C80.69 961.6 30.79 1011.5 30.79 1072.9C30.79 1134.3 80.69 1184.19 142.09 1184.19C203.49 1184.19 253.39 1134.5 253.39 1073.1C253.39 1011.5 203.49 961.6 142.09 961.6ZM142.09 1167.24C90.05 1167.24 47.75 1124.94 47.75 1072.9C47.75 1020.86 90.05 978.56 142.09 978.56C194.14 978.56 236.44 1020.86 236.44 1072.9C236.44 1124.94 194.14 1167.24 142.09 1167.24Z" fill="#FFFFFF" fill-opacity="1.000000" fill-rule="nonzero"/>
			<path id="Vector" d="M142.09 1010.53C107.59 1010.53 79.52 1038.6 79.52 1073.1C79.52 1107.6 107.4 1135.67 142.09 1135.67C176.59 1135.67 204.66 1107.6 204.66 1073.1C204.47 1038.6 176.59 1010.53 142.09 1010.53ZM142.09 1106.62C123.58 1106.62 108.57 1091.61 108.57 1073.1C108.57 1054.57 123.58 1039.56 142.09 1039.56C160.61 1039.56 175.62 1054.57 175.62 1073.1C175.62 1091.61 160.61 1106.62 142.09 1106.62Z" fill="#FFFFFF" fill-opacity="1.000000" fill-rule="nonzero"/>
		</g>
	</g>
	<g opacity="0.800000">
		<g clip-path="url(#clip44_551)">
			<path id="Vector" d="M1852.34 834.26C1852.34 835.78 1851.19 836.92 1849.67 836.92C1848.14 836.92 1847 835.78 1847 834.26C1847 832.74 1848.14 831.6 1849.67 831.6C1851.19 831.6 1852.34 832.87 1852.34 834.26Z" fill="#FFFFFF" fill-opacity="1.000000" fill-rule="nonzero"/>
			<path id="Vector" d="M1875.08 834.26C1875.08 835.78 1873.93 836.92 1872.41 836.92C1870.88 836.92 1869.74 835.78 1869.74 834.26C1869.74 832.74 1870.88 831.6 1872.41 831.6C1873.81 831.6 1875.08 832.87 1875.08 834.26Z" fill="#FFFFFF" fill-opacity="1.000000" fill-rule="nonzero"/>
			<path id="Vector" d="M1897.69 834.26C1897.69 835.78 1896.54 836.92 1895.02 836.92C1893.5 836.92 1892.35 835.78 1892.35 834.26C1892.35 832.74 1893.5 831.6 1895.02 831.6C1896.54 831.6 1897.69 832.87 1897.69 834.26Z" fill="#FFFFFF" fill-opacity="1.000000" fill-rule="nonzero"/>
			<path id="Vector" d="M1920.43 834.26C1920.43 835.78 1919.28 836.92 1917.76 836.92C1916.24 836.92 1915.09 835.78 1915.09 834.26C1915.09 832.74 1916.24 831.6 1917.76 831.6C1919.28 831.6 1920.43 832.87 1920.43 834.26Z" fill="#FFFFFF" fill-opacity="1.000000" fill-rule="nonzero"/>
			<path id="Vector" d="M1943.17 834.26C1943.17 835.78 1942.02 836.92 1940.5 836.92C1938.98 836.92 1937.83 835.78 1937.83 834.26C1937.83 832.74 1938.98 831.6 1940.5 831.6C1941.9 831.6 1943.17 832.87 1943.17 834.26Z" fill="#FFFFFF" fill-opacity="1.000000" fill-rule="nonzero"/>
			<path id="Vector" d="M1965.91 834.26C1965.91 835.78 1964.76 836.92 1963.24 836.92C1961.72 836.92 1960.57 835.78 1960.57 834.26C1960.57 832.74 1961.72 831.6 1963.24 831.6C1964.76 831.6 1965.91 832.87 1965.91 834.26Z" fill="#FFFFFF" fill-opacity="1.000000" fill-rule="nonzero"/>
			<path id="Vector" d="M1988.52 834.26C1988.52 835.78 1987.38 836.92 1985.85 836.92C1984.33 836.92 1983.18 835.78 1983.18 834.26C1983.18 832.74 1984.33 831.6 1985.85 831.6C1987.38 831.6 1988.52 832.87 1988.52 834.26Z" fill="#FFFFFF" fill-opacity="1.000000" fill-rule="nonzero"/>
			<path id="Vector" d="M2011.26 834.26C2011.26 835.78 2010.12 836.92 2008.59 836.92C2007.07 836.92 2005.92 835.78 2005.92 834.26C2005.92 832.74 2007.07 831.6 2008.59 831.6C2010.12 831.6 2011.26 832.87 2011.26 834.26Z" fill="#FFFFFF" fill-opacity="1.000000" fill-rule="nonzero"/>
			<path id="Vector" d="M2034 834.26C2034 835.78 2032.86 836.92 2031.33 836.92C2029.81 836.92 2028.66 835.78 2028.66 834.26C2028.66 832.74 2029.81 831.6 2031.33 831.6C2032.73 831.6 2034 832.87 2034 834.26Z" fill="#FFFFFF" fill-opacity="1.000000" fill-rule="nonzero"/>
			<path id="Vector" d="M1852.34 853.13C1852.34 854.64 1851.19 855.78 1849.67 855.78C1848.14 855.78 1847 854.64 1847 853.13C1847 851.61 1848.14 850.47 1849.67 850.47C1851.19 850.47 1852.34 851.61 1852.34 853.13Z" fill="#FFFFFF" fill-opacity="1.000000" fill-rule="nonzero"/>
			<path id="Vector" d="M1875.08 853.13C1875.08 854.64 1873.93 855.78 1872.41 855.78C1870.88 855.78 1869.74 854.64 1869.74 853.13C1869.74 851.61 1870.88 850.47 1872.41 850.47C1873.81 850.47 1875.08 851.61 1875.08 853.13Z" fill="#FFFFFF" fill-opacity="1.000000" fill-rule="nonzero"/>
			<path id="Vector" d="M1897.69 853.13C1897.69 854.64 1896.54 855.78 1895.02 855.78C1893.5 855.78 1892.35 854.64 1892.35 853.13C1892.35 851.61 1893.5 850.47 1895.02 850.47C1896.54 850.47 1897.69 851.61 1897.69 853.13Z" fill="#FFFFFF" fill-opacity="1.000000" fill-rule="nonzero"/>
			<path id="Vector" d="M1920.43 853.13C1920.43 854.64 1919.28 855.78 1917.76 855.78C1916.24 855.78 1915.09 854.64 1915.09 853.13C1915.09 851.61 1916.24 850.47 1917.76 850.47C1919.28 850.47 1920.43 851.61 1920.43 853.13Z" fill="#FFFFFF" fill-opacity="1.000000" fill-rule="nonzero"/>
			<path id="Vector" d="M1943.17 853.13C1943.17 854.64 1942.02 855.78 1940.5 855.78C1938.98 855.78 1937.83 854.64 1937.83 853.13C1937.83 851.61 1938.98 850.47 1940.5 850.47C1941.9 850.47 1943.17 851.61 1943.17 853.13Z" fill="#FFFFFF" fill-opacity="1.000000" fill-rule="nonzero"/>
			<path id="Vector" d="M1965.91 853.13C1965.91 854.64 1964.76 855.78 1963.24 855.78C1961.72 855.78 1960.57 854.64 1960.57 853.13C1960.57 851.61 1961.72 850.47 1963.24 850.47C1964.76 850.47 1965.91 851.61 1965.91 853.13Z" fill="#FFFFFF" fill-opacity="1.000000" fill-rule="nonzero"/>
			<path id="Vector" d="M1988.52 853.13C1988.52 854.64 1987.38 855.78 1985.85 855.78C1984.33 855.78 1983.18 854.64 1983.18 853.13C1983.18 851.61 1984.33 850.47 1985.85 850.47C1987.38 850.47 1988.52 851.61 1988.52 853.13Z" fill="#FFFFFF" fill-opacity="1.000000" fill-rule="nonzero"/>
			<path id="Vector" d="M2011.26 853.13C2011.26 854.64 2010.12 855.78 2008.59 855.78C2007.07 855.78 2005.92 854.64 2005.92 853.13C2005.92 851.61 2007.07 850.47 2008.59 850.47C2010.12 850.47 2011.26 851.61 2011.26 853.13Z" fill="#FFFFFF" fill-opacity="1.000000" fill-rule="nonzero"/>
			<path id="Vector" d="M2034 853.13C2034 854.64 2032.86 855.78 2031.33 855.78C2029.81 855.78 2028.66 854.64 2028.66 853.13C2028.66 851.61 2029.81 850.47 2031.33 850.47C2032.73 850.47 2034 851.61 2034 853.13Z" fill="#FFFFFF" fill-opacity="1.000000" fill-rule="nonzero"/>
			<path id="Vector" d="M1852.34 796.65C1852.34 798.17 1851.19 799.31 1849.67 799.31C1848.14 799.31 1847 798.17 1847 796.65C1847 795.14 1848.14 794 1849.67 794C1851.19 794 1852.34 795.14 1852.34 796.65Z" fill="#FFFFFF" fill-opacity="1.000000" fill-rule="nonzero"/>
			<path id="Vector" d="M1875.08 796.65C1875.08 798.17 1873.93 799.31 1872.41 799.31C1870.88 799.31 1869.74 798.17 1869.74 796.65C1869.74 795.14 1870.88 794 1872.41 794C1873.81 794 1875.08 795.14 1875.08 796.65Z" fill="#FFFFFF" fill-opacity="1.000000" fill-rule="nonzero"/>
			<path id="Vector" d="M1897.69 796.65C1897.69 798.17 1896.54 799.31 1895.02 799.31C1893.5 799.31 1892.35 798.17 1892.35 796.65C1892.35 795.14 1893.62 794 1895.02 794C1896.54 794 1897.69 795.14 1897.69 796.65Z" fill="#FFFFFF" fill-opacity="1.000000" fill-rule="nonzero"/>
			<path id="Vector" d="M1920.43 796.65C1920.43 798.17 1919.28 799.31 1917.76 799.31C1916.24 799.31 1915.09 798.17 1915.09 796.65C1915.09 795.14 1916.36 794 1917.76 794C1919.16 794 1920.43 795.14 1920.43 796.65Z" fill="#FFFFFF" fill-opacity="1.000000" fill-rule="nonzero"/>
			<path id="Vector" d="M1943.17 796.65C1943.17 798.17 1942.02 799.31 1940.5 799.31C1938.98 799.31 1937.83 798.17 1937.83 796.65C1937.83 795.14 1938.98 794 1940.5 794C1941.9 794 1943.17 795.14 1943.17 796.65Z" fill="#FFFFFF" fill-opacity="1.000000" fill-rule="nonzero"/>
			<path id="Vector" d="M1965.91 796.65C1965.91 798.17 1964.76 799.31 1963.24 799.31C1961.72 799.31 1960.57 798.17 1960.57 796.65C1960.57 795.14 1961.72 794 1963.24 794C1964.76 794 1965.91 795.14 1965.91 796.65Z" fill="#FFFFFF" fill-opacity="1.000000" fill-rule="nonzero"/>
			<path id="Vector" d="M1988.52 796.65C1988.52 798.17 1987.38 799.31 1985.85 799.31C1984.33 799.31 1983.18 798.17 1983.18 796.65C1983.18 795.14 1984.33 794 1985.85 794C1987.38 794 1988.52 795.14 1988.52 796.65Z" fill="#FFFFFF" fill-opacity="1.000000" fill-rule="nonzero"/>
			<path id="Vector" d="M2011.26 796.65C2011.26 798.17 2010.12 799.31 2008.59 799.31C2007.07 799.31 2005.92 798.17 2005.92 796.65C2005.92 795.14 2007.07 794 2008.59 794C2010.12 794 2011.26 795.14 2011.26 796.65Z" fill="#FFFFFF" fill-opacity="1.000000" fill-rule="nonzero"/>
			<path id="Vector" d="M2034 796.65C2034 798.17 2032.86 799.31 2031.33 799.31C2029.81 799.31 2028.66 798.17 2028.66 796.65C2028.66 795.14 2029.81 794 2031.33 794C2032.73 794 2034 795.14 2034 796.65Z" fill="#FFFFFF" fill-opacity="1.000000" fill-rule="nonzero"/>
			<path id="Vector" d="M1852.34 815.52C1852.34 817.04 1851.19 818.18 1849.67 818.18C1848.14 818.18 1847 816.91 1847 815.52C1847 814 1848.14 812.86 1849.67 812.86C1851.19 812.86 1852.34 814 1852.34 815.52Z" fill="#FFFFFF" fill-opacity="1.000000" fill-rule="nonzero"/>
			<path id="Vector" d="M1875.08 815.52C1875.08 817.04 1873.93 818.18 1872.41 818.18C1870.88 818.18 1869.74 817.04 1869.74 815.52C1869.74 814 1870.88 812.86 1872.41 812.86C1873.81 812.86 1875.08 814 1875.08 815.52Z" fill="#FFFFFF" fill-opacity="1.000000" fill-rule="nonzero"/>
			<path id="Vector" d="M1897.69 815.52C1897.69 817.04 1896.54 818.18 1895.02 818.18C1893.5 818.18 1892.35 817.04 1892.35 815.52C1892.35 814 1893.5 812.86 1895.02 812.86C1896.54 812.86 1897.69 814 1897.69 815.52Z" fill="#FFFFFF" fill-opacity="1.000000" fill-rule="nonzero"/>
			<path id="Vector" d="M1920.43 815.52C1920.43 817.04 1919.28 818.18 1917.76 818.18C1916.24 818.18 1915.09 817.04 1915.09 815.52C1915.09 814 1916.24 812.86 1917.76 812.86C1919.28 812.86 1920.43 814 1920.43 815.52Z" fill="#FFFFFF" fill-opacity="1.000000" fill-rule="nonzero"/>
			<path id="Vector" d="M1943.17 815.52C1943.17 817.04 1942.02 818.18 1940.5 818.18C1938.98 818.18 1937.83 817.04 1937.83 815.52C1937.83 814 1938.98 812.86 1940.5 812.86C1941.9 812.86 1943.17 814 1943.17 815.52Z" fill="#FFFFFF" fill-opacity="1.000000" fill-rule="nonzero"/>
			<path id="Vector" d="M1965.91 815.52C1965.91 817.04 1964.76 818.18 1963.24 818.18C1961.72 818.18 1960.57 817.04 1960.57 815.52C1960.57 814 1961.72 812.86 1963.24 812.86C1964.76 812.86 1965.91 814 1965.91 815.52Z" fill="#FFFFFF" fill-opacity="1.000000" fill-rule="nonzero"/>
			<path id="Vector" d="M1988.52 815.52C1988.52 817.04 1987.38 818.18 1985.85 818.18C1984.33 818.18 1983.18 817.04 1983.18 815.52C1983.18 814 1984.33 812.86 1985.85 812.86C1987.38 812.86 1988.52 814 1988.52 815.52Z" fill="#FFFFFF" fill-opacity="1.000000" fill-rule="nonzero"/>
			<path id="Vector" d="M2011.26 815.52C2011.26 817.04 2010.12 818.18 2008.59 818.18C2007.07 818.18 2005.92 817.04 2005.92 815.52C2005.92 814 2007.07 812.86 2008.59 812.86C2010.12 812.86 2011.26 814 2011.26 815.52Z" fill="#FFFFFF" fill-opacity="1.000000" fill-rule="nonzero"/>
			<path id="Vector" d="M2034 815.52C2034 817.04 2032.86 818.18 2031.33 818.18C2029.81 818.18 2028.66 817.04 2028.66 815.52C2028.66 814 2029.81 812.86 2031.33 812.86C2032.73 812.86 2034 814 2034 815.52Z" fill="#FFFFFF" fill-opacity="1.000000" fill-rule="nonzero"/>
			<path id="Vector" d="M1852.34 871.87C1852.34 873.39 1851.19 874.52 1849.67 874.52C1848.14 874.52 1847 873.39 1847 871.87C1847 870.35 1848.14 869.21 1849.67 869.21C1851.19 869.21 1852.34 870.47 1852.34 871.87Z" fill="#FFFFFF" fill-opacity="1.000000" fill-rule="nonzero"/>
			<path id="Vector" d="M1875.08 871.87C1875.08 873.39 1873.93 874.52 1872.41 874.52C1870.88 874.52 1869.74 873.39 1869.74 871.87C1869.74 870.35 1870.88 869.21 1872.41 869.21C1873.81 869.21 1875.08 870.47 1875.08 871.87Z" fill="#FFFFFF" fill-opacity="1.000000" fill-rule="nonzero"/>
			<path id="Vector" d="M1897.69 871.87C1897.69 873.39 1896.54 874.52 1895.02 874.52C1893.5 874.52 1892.35 873.39 1892.35 871.87C1892.35 870.35 1893.5 869.21 1895.02 869.21C1896.54 869.21 1897.69 870.47 1897.69 871.87Z" fill="#FFFFFF" fill-opacity="1.000000" fill-rule="nonzero"/>
			<path id="Vector" d="M1920.43 871.87C1920.43 873.39 1919.28 874.52 1917.76 874.52C1916.24 874.52 1915.09 873.39 1915.09 871.87C1915.09 870.35 1916.24 869.21 1917.76 869.21C1919.28 869.21 1920.43 870.47 1920.43 871.87Z" fill="#FFFFFF" fill-opacity="1.000000" fill-rule="nonzero"/>
			<path id="Vector" d="M1943.17 871.87C1943.17 873.39 1942.02 874.52 1940.5 874.52C1938.98 874.52 1937.83 873.39 1937.83 871.87C1937.83 870.35 1938.98 869.21 1940.5 869.21C1941.9 869.21 1943.17 870.47 1943.17 871.87Z" fill="#FFFFFF" fill-opacity="1.000000" fill-rule="nonzero"/>
			<path id="Vector" d="M1965.91 871.87C1965.91 873.39 1964.76 874.52 1963.24 874.52C1961.72 874.52 1960.57 873.39 1960.57 871.87C1960.57 870.35 1961.72 869.21 1963.24 869.21C1964.76 869.21 1965.91 870.47 1965.91 871.87Z" fill="#FFFFFF" fill-opacity="1.000000" fill-rule="nonzero"/>
			<path id="Vector" d="M1988.52 871.87C1988.52 873.39 1987.38 874.52 1985.85 874.52C1984.33 874.52 1983.18 873.39 1983.18 871.87C1983.18 870.35 1984.33 869.21 1985.85 869.21C1987.38 869.21 1988.52 870.47 1988.52 871.87Z" fill="#FFFFFF" fill-opacity="1.000000" fill-rule="nonzero"/>
			<path id="Vector" d="M2011.26 871.87C2011.26 873.39 2010.12 874.52 2008.59 874.52C2007.07 874.52 2005.92 873.39 2005.92 871.87C2005.92 870.35 2007.07 869.21 2008.59 869.21C2010.12 869.21 2011.26 870.47 2011.26 871.87Z" fill="#FFFFFF" fill-opacity="1.000000" fill-rule="nonzero"/>
			<path id="Vector" d="M2034 871.87C2034 873.39 2032.86 874.52 2031.33 874.52C2029.81 874.52 2028.66 873.39 2028.66 871.87C2028.66 870.35 2029.81 869.21 2031.33 869.21C2032.73 869.21 2034 870.47 2034 871.87Z" fill="#FFFFFF" fill-opacity="1.000000" fill-rule="nonzero"/>
			<path id="Vector" d="M1852.34 890.73C1852.34 892.25 1851.19 893.39 1849.67 893.39C1848.14 893.39 1847 892.25 1847 890.73C1847 889.21 1848.14 888.07 1849.67 888.07C1851.19 888.07 1852.34 889.21 1852.34 890.73Z" fill="#FFFFFF" fill-opacity="1.000000" fill-rule="nonzero"/>
			<path id="Vector" d="M1875.08 890.73C1875.08 892.25 1873.93 893.39 1872.41 893.39C1870.88 893.39 1869.74 892.25 1869.74 890.73C1869.74 889.21 1870.88 888.07 1872.41 888.07C1873.81 888.07 1875.08 889.21 1875.08 890.73Z" fill="#FFFFFF" fill-opacity="1.000000" fill-rule="nonzero"/>
			<path id="Vector" d="M1897.69 890.73C1897.69 892.25 1896.54 893.39 1895.02 893.39C1893.5 893.39 1892.35 892.25 1892.35 890.73C1892.35 889.21 1893.5 888.07 1895.02 888.07C1896.54 888.07 1897.69 889.21 1897.69 890.73Z" fill="#FFFFFF" fill-opacity="1.000000" fill-rule="nonzero"/>
			<path id="Vector" d="M1920.43 890.73C1920.43 892.2 1919.23 893.39 1917.76 893.39C1916.29 893.39 1915.09 892.2 1915.09 890.73C1915.09 889.26 1916.29 888.07 1917.76 888.07C1919.23 888.07 1920.43 889.26 1920.43 890.73Z" fill="#FFFFFF" fill-opacity="1.000000" fill-rule="evenodd"/>
			<path id="Vector" d="M1943.17 890.73C1943.17 892.25 1942.02 893.39 1940.5 893.39C1938.98 893.39 1937.83 892.25 1937.83 890.73C1937.83 889.21 1938.98 888.07 1940.5 888.07C1941.9 888.07 1943.17 889.21 1943.17 890.73Z" fill="#FFFFFF" fill-opacity="1.000000" fill-rule="nonzero"/>
			<path id="Vector" d="M1965.91 890.73C1965.91 892.25 1964.76 893.39 1963.24 893.39C1961.72 893.39 1960.57 892.25 1960.57 890.73C1960.57 889.21 1961.72 888.07 1963.24 888.07C1964.76 888.07 1965.91 889.21 1965.91 890.73Z" fill="#FFFFFF" fill-opacity="1.000000" fill-rule="nonzero"/>
			<path id="Vector" d="M1988.52 890.73C1988.52 892.25 1987.38 893.39 1985.85 893.39C1984.33 893.39 1983.18 892.25 1983.18 890.73C1983.18 889.21 1984.33 888.07 1985.85 888.07C1987.38 888.07 1988.52 889.21 1988.52 890.73Z" fill="#FFFFFF" fill-opacity="1.000000" fill-rule="nonzero"/>
			<path id="Vector" d="M2011.26 890.73C2011.26 892.2 2010.07 893.39 2008.59 893.39C2007.12 893.39 2005.92 892.2 2005.92 890.73C2005.92 889.26 2007.12 888.07 2008.59 888.07C2010.07 888.07 2011.26 889.26 2011.26 890.73Z" fill="#FFFFFF" fill-opacity="1.000000" fill-rule="evenodd"/>
			<path id="Vector" d="M2034 890.73C2034 892.25 2032.86 893.39 2031.33 893.39C2029.81 893.39 2028.66 892.25 2028.66 890.73C2028.66 889.21 2029.81 888.07 2031.33 888.07C2032.73 888.07 2034 889.21 2034 890.73Z" fill="#FFFFFF" fill-opacity="1.000000" fill-rule="nonzero"/>
			<path id="Vector" d="M1852.34 909.6C1852.34 911.12 1851.19 912.26 1849.67 912.26C1848.14 912.26 1847 911.12 1847 909.6C1847 908.08 1848.14 906.94 1849.67 906.94C1851.19 906.94 1852.34 908.08 1852.34 909.6Z" fill="#FFFFFF" fill-opacity="1.000000" fill-rule="nonzero"/>
			<path id="Vector" d="M1875.08 909.6C1875.08 911.12 1873.93 912.26 1872.41 912.26C1870.88 912.26 1869.74 911.12 1869.74 909.6C1869.74 908.08 1870.88 906.94 1872.41 906.94C1873.81 906.94 1875.08 908.08 1875.08 909.6Z" fill="#FFFFFF" fill-opacity="1.000000" fill-rule="nonzero"/>
			<path id="Vector" d="M1897.69 909.6C1897.69 911.12 1896.54 912.26 1895.02 912.26C1893.5 912.26 1892.35 911.12 1892.35 909.6C1892.35 908.08 1893.5 906.94 1895.02 906.94C1896.54 906.94 1897.69 908.08 1897.69 909.6Z" fill="#FFFFFF" fill-opacity="1.000000" fill-rule="nonzero"/>
			<path id="Vector" d="M1920.43 909.6C1920.43 911.12 1919.28 912.26 1917.76 912.26C1916.24 912.26 1915.09 911.12 1915.09 909.6C1915.09 908.08 1916.24 906.94 1917.76 906.94C1919.28 906.94 1920.43 908.08 1920.43 909.6Z" fill="#FFFFFF" fill-opacity="1.000000" fill-rule="nonzero"/>
			<path id="Vector" d="M1943.17 909.6C1943.17 911.12 1942.02 912.26 1940.5 912.26C1938.98 912.26 1937.83 911.12 1937.83 909.6C1937.83 908.08 1938.98 906.94 1940.5 906.94C1941.9 906.94 1943.17 908.08 1943.17 909.6Z" fill="#FFFFFF" fill-opacity="1.000000" fill-rule="nonzero"/>
			<path id="Vector" d="M1965.91 909.6C1965.91 911.12 1964.76 912.26 1963.24 912.26C1961.72 912.26 1960.57 911.12 1960.57 909.6C1960.57 908.08 1961.72 906.94 1963.24 906.94C1964.76 906.94 1965.91 908.08 1965.91 909.6Z" fill="#FFFFFF" fill-opacity="1.000000" fill-rule="nonzero"/>
			<path id="Vector" d="M1988.52 909.6C1988.52 911.12 1987.38 912.26 1985.85 912.26C1984.33 912.26 1983.18 911.12 1983.18 909.6C1983.18 908.08 1984.33 906.94 1985.85 906.94C1987.38 906.94 1988.52 908.08 1988.52 909.6Z" fill="#FFFFFF" fill-opacity="1.000000" fill-rule="nonzero"/>
			<path id="Vector" d="M2011.26 909.6C2011.26 911.12 2010.12 912.26 2008.59 912.26C2007.07 912.26 2005.92 911.12 2005.92 909.6C2005.92 908.08 2007.07 906.94 2008.59 906.94C2010.12 906.94 2011.26 908.08 2011.26 909.6Z" fill="#FFFFFF" fill-opacity="1.000000" fill-rule="nonzero"/>
			<path id="Vector" d="M2034 909.6C2034 911.12 2032.86 912.26 2031.33 912.26C2029.81 912.26 2028.66 911.12 2028.66 909.6C2028.66 908.08 2029.81 906.94 2031.33 906.94C2032.73 906.94 2034 908.08 2034 909.6Z" fill="#FFFFFF" fill-opacity="1.000000" fill-rule="nonzero"/>
			<path id="Vector" d="M1852.34 928.34C1852.34 929.86 1851.19 931 1849.67 931C1848.14 931 1847 929.86 1847 928.34C1847 926.82 1848.14 925.68 1849.67 925.68C1851.19 925.68 1852.34 926.94 1852.34 928.34Z" fill="#FFFFFF" fill-opacity="1.000000" fill-rule="nonzero"/>
			<path id="Vector" d="M1875.08 928.34C1875.08 929.86 1873.93 931 1872.41 931C1870.88 931 1869.74 929.86 1869.74 928.34C1869.74 926.82 1870.88 925.68 1872.41 925.68C1873.81 925.68 1875.08 926.94 1875.08 928.34Z" fill="#FFFFFF" fill-opacity="1.000000" fill-rule="nonzero"/>
			<path id="Vector" d="M1897.69 928.34C1897.69 929.86 1896.54 931 1895.02 931C1893.5 931 1892.35 929.86 1892.35 928.34C1892.35 926.82 1893.5 925.68 1895.02 925.68C1896.54 925.68 1897.69 926.94 1897.69 928.34Z" fill="#FFFFFF" fill-opacity="1.000000" fill-rule="nonzero"/>
			<path id="Vector" d="M1920.43 928.34C1920.43 929.86 1919.28 931 1917.76 931C1916.24 931 1915.09 929.86 1915.09 928.34C1915.09 926.82 1916.24 925.68 1917.76 925.68C1919.28 925.68 1920.43 926.94 1920.43 928.34Z" fill="#FFFFFF" fill-opacity="1.000000" fill-rule="nonzero"/>
			<path id="Vector" d="M1943.17 928.34C1943.17 929.86 1942.02 931 1940.5 931C1938.98 931 1937.83 929.86 1937.83 928.34C1937.83 926.82 1938.98 925.68 1940.5 925.68C1941.9 925.68 1943.17 926.94 1943.17 928.34Z" fill="#FFFFFF" fill-opacity="1.000000" fill-rule="nonzero"/>
			<path id="Vector" d="M1965.91 928.34C1965.91 929.86 1964.76 931 1963.24 931C1961.72 931 1960.57 929.86 1960.57 928.34C1960.57 926.82 1961.72 925.68 1963.24 925.68C1964.76 925.68 1965.91 926.94 1965.91 928.34Z" fill="#FFFFFF" fill-opacity="1.000000" fill-rule="nonzero"/>
			<path id="Vector" d="M1988.52 928.34C1988.52 929.86 1987.38 931 1985.85 931C1984.33 931 1983.18 929.86 1983.18 928.34C1983.18 926.82 1984.33 925.68 1985.85 925.68C1987.38 925.68 1988.52 926.94 1988.52 928.34Z" fill="#FFFFFF" fill-opacity="1.000000" fill-rule="nonzero"/>
			<path id="Vector" d="M2011.26 928.34C2011.26 929.86 2010.12 931 2008.59 931C2007.07 931 2005.92 929.86 2005.92 928.34C2005.92 926.82 2007.07 925.68 2008.59 925.68C2010.12 925.68 2011.26 926.94 2011.26 928.34Z" fill="#FFFFFF" fill-opacity="1.000000" fill-rule="nonzero"/>
			<path id="Vector" d="M2034 928.34C2034 929.86 2032.86 931 2031.33 931C2029.81 931 2028.66 929.86 2028.66 928.34C2028.66 926.82 2029.81 925.68 2031.33 925.68C2032.73 925.68 2034 926.94 2034 928.34Z" fill="#FFFFFF" fill-opacity="1.000000" fill-rule="nonzero"/>
		</g>
	</g>
	<g opacity="0.300000">
		<path id="Vector" d="M1845.81 120.22L1855.47 129.87L1829.78 155.56L1804.1 129.87L1813.68 120.29L1829.71 136.31L1845.81 120.22Z" fill="#FFFFFF" fill-opacity="1.000000" fill-rule="nonzero"/>
		<path id="Vector" d="M1845.81 85.53L1855.39 95.12L1829.71 120.8L1804.1 95.19L1813.76 85.53L1829.78 101.56L1845.81 85.53Z" fill="#FFFFFF" fill-opacity="1.000000" fill-rule="nonzero"/>
		<path id="Vector" d="M1845.73 50.78L1855.39 60.43L1829.78 86.04L1804.1 60.36L1813.68 50.78L1829.71 66.8L1845.73 50.78Z" fill="#FFFFFF" fill-opacity="1.000000" fill-rule="nonzero"/>
		<path id="Vector" d="M1845.81 16.02L1855.46 25.68L1829.78 51.36L1804.1 25.68L1813.76 16.02L1829.78 32.04L1845.81 16.02Z" fill="#FFFFFF" fill-opacity="1.000000" fill-rule="nonzero"/>
	</g>
	<g opacity="0.300000">
		<path id="Vector" d="M878 853.55C864.07 867.48 841.37 867.48 827.44 853.55C813.51 839.62 813.51 816.93 827.44 803L878 853.55Z" fill="#FFFFFF" fill-opacity="1.000000" fill-rule="nonzero"/>
	</g>
	<g opacity="0.300000">
		<path id="Vector" d="M932.48 574.89C943.2 574.89 951.93 566.16 951.93 555.45C951.93 544.74 943.2 536.01 932.48 536.01L932.48 574.89Z" fill="#FFFFFF" fill-opacity="1.000000" fill-rule="nonzero"/>
		<path id="Vector" d="M902.14 574.89C912.86 574.89 921.59 566.16 921.59 555.45C921.59 544.74 912.86 536.01 902.14 536.01L902.14 574.89Z" fill="#FFFFFF" fill-opacity="1.000000" fill-rule="nonzero"/>
		<path id="Vector" d="M871.79 574.89C882.51 574.89 891.24 566.16 891.24 555.45C891.24 544.74 882.51 536.01 871.79 536.01L871.79 574.89Z" fill="#FFFFFF" fill-opacity="1.000000" fill-rule="nonzero"/>
	</g>
	<g opacity="0.300000">
		<path id="Vector" d="M230.3 189.92L230.3 177.99L262 177.99L262 209.69L250.16 209.69L250.16 189.92L230.3 189.92Z" fill="#FFFFFF" fill-opacity="1.000000" fill-rule="nonzero"/>
		<path id="Vector" d="M208.89 211.32L208.89 199.49L240.59 199.49L240.59 231.1L228.67 231.1L228.67 211.32L208.89 211.32Z" fill="#FFFFFF" fill-opacity="1.000000" fill-rule="nonzero"/>
		<path id="Vector" d="M187.49 232.81L187.49 220.89L219.1 220.89L219.1 252.59L207.27 252.59L207.27 232.81L187.49 232.81Z" fill="#FFFFFF" fill-opacity="1.000000" fill-rule="nonzero"/>
		<path id="Vector" d="M166 254.22L166 242.3L197.69 242.3L197.69 273.99L185.77 273.99L185.77 254.22L166 254.22Z" fill="#FFFFFF" fill-opacity="1.000000" fill-rule="nonzero"/>
	</g>
</svg>
