<svg width="1734.000000" height="597.000000" viewBox="0 0 1734 597" fill="none" xmlns="http://www.w3.org/2000/svg" xmlns:xlink="http://www.w3.org/1999/xlink">
	<desc>
			Created with Pixso.
	</desc>
	<defs>
		<clipPath id="clip232_509">
			<rect id="dots" width="143.000000" height="105.000000" transform="translate(1048.000000 0.000000)" fill="white" fill-opacity="0"/>
		</clipPath>
	</defs>
	<g opacity="0.600000">
		<path id="Vector" d="M1702.3 512.92L1702.3 501L1734 501L1734 532.69L1722.17 532.69L1722.17 512.92L1702.3 512.92Z" fill="#FFFFFF" fill-opacity="1.000000" fill-rule="nonzero"/>
		<path id="Vector" d="M1680.9 534.32L1680.9 522.49L1712.6 522.49L1712.6 554.1L1700.68 554.1L1700.68 534.32L1680.9 534.32Z" fill="#FFFFFF" fill-opacity="1.000000" fill-rule="nonzero"/>
		<path id="Vector" d="M1659.49 555.81L1659.49 543.89L1691.1 543.89L1691.1 575.59L1679.27 575.59L1679.27 555.81L1659.49 555.81Z" fill="#FFFFFF" fill-opacity="1.000000" fill-rule="nonzero"/>
		<path id="Vector" d="M1638 577.22L1638 565.3L1669.7 565.3L1669.7 597L1657.78 597L1657.78 577.22L1638 577.22Z" fill="#FFFFFF" fill-opacity="1.000000" fill-rule="nonzero"/>
	</g>
	<g clip-path="url(#clip232_509)">
		<path id="Vector" d="M1052.07 30.85C1052.07 32.02 1051.21 32.89 1050.04 32.89C1048.87 32.89 1048 32.02 1048 30.85C1048 29.69 1048.87 28.82 1050.04 28.82C1051.21 28.82 1052.07 29.79 1052.07 30.85Z" fill="#FFFFFF" fill-opacity="1.000000" fill-rule="nonzero"/>
		<path id="Vector" d="M1069.47 30.85C1069.47 32.02 1068.6 32.89 1067.43 32.89C1066.26 32.89 1065.39 32.02 1065.39 30.85C1065.39 29.69 1066.26 28.82 1067.43 28.82C1068.5 28.82 1069.47 29.79 1069.47 30.85Z" fill="#FFFFFF" fill-opacity="1.000000" fill-rule="nonzero"/>
		<path id="Vector" d="M1086.76 30.85C1086.76 32.02 1085.89 32.89 1084.72 32.89C1083.56 32.89 1082.68 32.02 1082.68 30.85C1082.68 29.69 1083.56 28.82 1084.72 28.82C1085.89 28.82 1086.76 29.79 1086.76 30.85Z" fill="#FFFFFF" fill-opacity="1.000000" fill-rule="nonzero"/>
		<path id="Vector" d="M1104.15 30.85C1104.15 32.02 1103.28 32.89 1102.11 32.89C1100.94 32.89 1100.06 32.02 1100.06 30.85C1100.06 29.69 1100.94 28.82 1102.11 28.82C1103.28 28.82 1104.15 29.79 1104.15 30.85Z" fill="#FFFFFF" fill-opacity="1.000000" fill-rule="nonzero"/>
		<path id="Vector" d="M1121.54 30.85C1121.54 32.02 1120.67 32.89 1119.5 32.89C1118.32 32.89 1117.46 32.02 1117.46 30.85C1117.46 29.69 1118.32 28.82 1119.5 28.82C1120.56 28.82 1121.54 29.79 1121.54 30.85Z" fill="#FFFFFF" fill-opacity="1.000000" fill-rule="nonzero"/>
		<path id="Vector" d="M1138.93 30.85C1138.93 32.02 1138.06 32.89 1136.89 32.89C1135.72 32.89 1134.85 32.02 1134.85 30.85C1134.85 29.69 1135.72 28.82 1136.89 28.82C1138.06 28.82 1138.93 29.79 1138.93 30.85Z" fill="#FFFFFF" fill-opacity="1.000000" fill-rule="nonzero"/>
		<path id="Vector" d="M1156.22 30.85C1156.22 32.02 1155.35 32.89 1154.18 32.89C1153.02 32.89 1152.14 32.02 1152.14 30.85C1152.14 29.69 1153.02 28.82 1154.18 28.82C1155.35 28.82 1156.22 29.79 1156.22 30.85Z" fill="#FFFFFF" fill-opacity="1.000000" fill-rule="nonzero"/>
		<path id="Vector" d="M1173.61 30.85C1173.61 32.02 1172.74 32.89 1171.56 32.89C1170.41 32.89 1169.53 32.02 1169.53 30.85C1169.53 29.69 1170.41 28.82 1171.56 28.82C1172.74 28.82 1173.61 29.79 1173.61 30.85Z" fill="#FFFFFF" fill-opacity="1.000000" fill-rule="nonzero"/>
		<path id="Vector" d="M1191 30.85C1191 32.02 1190.13 32.89 1188.96 32.89C1187.79 32.89 1186.92 32.02 1186.92 30.85C1186.92 29.69 1187.79 28.82 1188.96 28.82C1190.03 28.82 1191 29.79 1191 30.85Z" fill="#FFFFFF" fill-opacity="1.000000" fill-rule="nonzero"/>
		<path id="Vector" d="M1052.07 45.31C1052.07 46.48 1051.21 47.35 1050.04 47.35C1048.87 47.35 1048 46.48 1048 45.31C1048 44.15 1048.87 43.28 1050.04 43.28C1051.21 43.28 1052.07 44.15 1052.07 45.31Z" fill="#FFFFFF" fill-opacity="1.000000" fill-rule="nonzero"/>
		<path id="Vector" d="M1069.47 45.31C1069.47 46.48 1068.6 47.35 1067.43 47.35C1066.26 47.35 1065.39 46.48 1065.39 45.31C1065.39 44.15 1066.26 43.28 1067.43 43.28C1068.5 43.28 1069.47 44.15 1069.47 45.31Z" fill="#FFFFFF" fill-opacity="1.000000" fill-rule="nonzero"/>
		<path id="Vector" d="M1086.76 45.31C1086.76 46.48 1085.89 47.35 1084.72 47.35C1083.56 47.35 1082.68 46.48 1082.68 45.31C1082.68 44.15 1083.56 43.28 1084.72 43.28C1085.89 43.28 1086.76 44.15 1086.76 45.31Z" fill="#FFFFFF" fill-opacity="1.000000" fill-rule="nonzero"/>
		<path id="Vector" d="M1104.15 45.31C1104.15 46.48 1103.28 47.35 1102.11 47.35C1100.94 47.35 1100.06 46.48 1100.06 45.31C1100.06 44.15 1100.94 43.28 1102.11 43.28C1103.28 43.28 1104.15 44.15 1104.15 45.31Z" fill="#FFFFFF" fill-opacity="1.000000" fill-rule="nonzero"/>
		<path id="Vector" d="M1121.54 45.31C1121.54 46.48 1120.67 47.35 1119.5 47.35C1118.32 47.35 1117.46 46.48 1117.46 45.31C1117.46 44.15 1118.32 43.28 1119.5 43.28C1120.56 43.28 1121.54 44.15 1121.54 45.31Z" fill="#FFFFFF" fill-opacity="1.000000" fill-rule="nonzero"/>
		<path id="Vector" d="M1138.93 45.31C1138.93 46.48 1138.06 47.35 1136.89 47.35C1135.72 47.35 1134.85 46.48 1134.85 45.31C1134.85 44.15 1135.72 43.28 1136.89 43.28C1138.06 43.28 1138.93 44.15 1138.93 45.31Z" fill="#FFFFFF" fill-opacity="1.000000" fill-rule="nonzero"/>
		<path id="Vector" d="M1156.22 45.31C1156.22 46.48 1155.35 47.35 1154.18 47.35C1153.02 47.35 1152.14 46.48 1152.14 45.31C1152.14 44.15 1153.02 43.28 1154.18 43.28C1155.35 43.28 1156.22 44.15 1156.22 45.31Z" fill="#FFFFFF" fill-opacity="1.000000" fill-rule="nonzero"/>
		<path id="Vector" d="M1173.61 45.31C1173.61 46.48 1172.74 47.35 1171.56 47.35C1170.41 47.35 1169.53 46.48 1169.53 45.31C1169.53 44.15 1170.41 43.28 1171.56 43.28C1172.74 43.28 1173.61 44.15 1173.61 45.31Z" fill="#FFFFFF" fill-opacity="1.000000" fill-rule="nonzero"/>
		<path id="Vector" d="M1191 45.31C1191 46.48 1190.13 47.35 1188.96 47.35C1187.79 47.35 1186.92 46.48 1186.92 45.31C1186.92 44.15 1187.79 43.28 1188.96 43.28C1190.03 43.28 1191 44.15 1191 45.31Z" fill="#FFFFFF" fill-opacity="1.000000" fill-rule="nonzero"/>
		<path id="Vector" d="M1052.07 2.03C1052.07 3.2 1051.21 4.07 1050.04 4.07C1048.87 4.07 1048 3.2 1048 2.03C1048 0.87 1048.87 0 1050.04 0C1051.21 0 1052.07 0.87 1052.07 2.03Z" fill="#FFFFFF" fill-opacity="1.000000" fill-rule="nonzero"/>
		<path id="Vector" d="M1069.47 2.03C1069.47 3.2 1068.6 4.07 1067.43 4.07C1066.26 4.07 1065.39 3.2 1065.39 2.03C1065.39 0.87 1066.26 0 1067.43 0C1068.5 0 1069.47 0.87 1069.47 2.03Z" fill="#FFFFFF" fill-opacity="1.000000" fill-rule="nonzero"/>
		<path id="Vector" d="M1086.76 2.03C1086.76 3.2 1085.89 4.07 1084.72 4.07C1083.56 4.07 1082.68 3.2 1082.68 2.03C1082.68 0.87 1083.65 0 1084.72 0C1085.89 0 1086.76 0.87 1086.76 2.03Z" fill="#FFFFFF" fill-opacity="1.000000" fill-rule="nonzero"/>
		<path id="Vector" d="M1104.15 2.03C1104.15 3.2 1103.28 4.07 1102.11 4.07C1100.94 4.07 1100.06 3.2 1100.06 2.03C1100.06 0.87 1101.04 0 1102.11 0C1103.18 0 1104.15 0.87 1104.15 2.03Z" fill="#FFFFFF" fill-opacity="1.000000" fill-rule="nonzero"/>
		<path id="Vector" d="M1121.54 2.03C1121.54 3.2 1120.67 4.07 1119.5 4.07C1118.32 4.07 1117.46 3.2 1117.46 2.03C1117.46 0.87 1118.32 0 1119.5 0C1120.56 0 1121.54 0.87 1121.54 2.03Z" fill="#FFFFFF" fill-opacity="1.000000" fill-rule="nonzero"/>
		<path id="Vector" d="M1138.93 2.03C1138.93 3.2 1138.06 4.07 1136.89 4.07C1135.72 4.07 1134.85 3.2 1134.85 2.03C1134.85 0.87 1135.72 0 1136.89 0C1138.06 0 1138.93 0.87 1138.93 2.03Z" fill="#FFFFFF" fill-opacity="1.000000" fill-rule="nonzero"/>
		<path id="Vector" d="M1156.22 2.03C1156.22 3.2 1155.35 4.07 1154.18 4.07C1153.02 4.07 1152.14 3.2 1152.14 2.03C1152.14 0.87 1153.02 0 1154.18 0C1155.35 0 1156.22 0.87 1156.22 2.03Z" fill="#FFFFFF" fill-opacity="1.000000" fill-rule="nonzero"/>
		<path id="Vector" d="M1173.61 2.03C1173.61 3.2 1172.74 4.07 1171.56 4.07C1170.41 4.07 1169.53 3.2 1169.53 2.03C1169.53 0.87 1170.41 0 1171.56 0C1172.74 0 1173.61 0.87 1173.61 2.03Z" fill="#FFFFFF" fill-opacity="1.000000" fill-rule="nonzero"/>
		<path id="Vector" d="M1191 2.03C1191 3.2 1190.13 4.07 1188.96 4.07C1187.79 4.07 1186.92 3.2 1186.92 2.03C1186.92 0.87 1187.79 0 1188.96 0C1190.03 0 1191 0.87 1191 2.03Z" fill="#FFFFFF" fill-opacity="1.000000" fill-rule="nonzero"/>
		<path id="Vector" d="M1052.07 16.49C1052.07 17.66 1051.21 18.53 1050.04 18.53C1048.87 18.53 1048 17.56 1048 16.49C1048 15.33 1048.87 14.45 1050.04 14.45C1051.21 14.45 1052.07 15.33 1052.07 16.49Z" fill="#FFFFFF" fill-opacity="1.000000" fill-rule="nonzero"/>
		<path id="Vector" d="M1069.47 16.49C1069.47 17.66 1068.6 18.53 1067.43 18.53C1066.26 18.53 1065.39 17.66 1065.39 16.49C1065.39 15.33 1066.26 14.45 1067.43 14.45C1068.5 14.45 1069.47 15.33 1069.47 16.49Z" fill="#FFFFFF" fill-opacity="1.000000" fill-rule="nonzero"/>
		<path id="Vector" d="M1086.76 16.49C1086.76 17.66 1085.89 18.53 1084.72 18.53C1083.56 18.53 1082.68 17.66 1082.68 16.49C1082.68 15.33 1083.56 14.45 1084.72 14.45C1085.89 14.45 1086.76 15.33 1086.76 16.49Z" fill="#FFFFFF" fill-opacity="1.000000" fill-rule="nonzero"/>
		<path id="Vector" d="M1104.15 16.49C1104.15 17.66 1103.28 18.53 1102.11 18.53C1100.94 18.53 1100.06 17.66 1100.06 16.49C1100.06 15.33 1100.94 14.45 1102.11 14.45C1103.28 14.45 1104.15 15.33 1104.15 16.49Z" fill="#FFFFFF" fill-opacity="1.000000" fill-rule="nonzero"/>
		<path id="Vector" d="M1121.54 16.49C1121.54 17.66 1120.67 18.53 1119.5 18.53C1118.32 18.53 1117.46 17.66 1117.46 16.49C1117.46 15.33 1118.32 14.45 1119.5 14.45C1120.56 14.45 1121.54 15.33 1121.54 16.49Z" fill="#FFFFFF" fill-opacity="1.000000" fill-rule="nonzero"/>
		<path id="Vector" d="M1138.93 16.49C1138.93 17.66 1138.06 18.53 1136.89 18.53C1135.72 18.53 1134.85 17.66 1134.85 16.49C1134.85 15.33 1135.72 14.45 1136.89 14.45C1138.06 14.45 1138.93 15.33 1138.93 16.49Z" fill="#FFFFFF" fill-opacity="1.000000" fill-rule="nonzero"/>
		<path id="Vector" d="M1156.22 16.49C1156.22 17.66 1155.35 18.53 1154.18 18.53C1153.02 18.53 1152.14 17.66 1152.14 16.49C1152.14 15.33 1153.02 14.45 1154.18 14.45C1155.35 14.45 1156.22 15.33 1156.22 16.49Z" fill="#FFFFFF" fill-opacity="1.000000" fill-rule="nonzero"/>
		<path id="Vector" d="M1173.61 16.49C1173.61 17.66 1172.74 18.53 1171.56 18.53C1170.41 18.53 1169.53 17.66 1169.53 16.49C1169.53 15.33 1170.41 14.45 1171.56 14.45C1172.74 14.45 1173.61 15.33 1173.61 16.49Z" fill="#FFFFFF" fill-opacity="1.000000" fill-rule="nonzero"/>
		<path id="Vector" d="M1191 16.49C1191 17.66 1190.13 18.53 1188.96 18.53C1187.79 18.53 1186.92 17.66 1186.92 16.49C1186.92 15.33 1187.79 14.45 1188.96 14.45C1190.03 14.45 1191 15.33 1191 16.49Z" fill="#FFFFFF" fill-opacity="1.000000" fill-rule="nonzero"/>
		<path id="Vector" d="M1052.07 59.67C1052.07 60.84 1051.21 61.71 1050.04 61.71C1048.87 61.71 1048 60.84 1048 59.67C1048 58.51 1048.87 57.64 1050.04 57.64C1051.21 57.64 1052.07 58.61 1052.07 59.67Z" fill="#FFFFFF" fill-opacity="1.000000" fill-rule="nonzero"/>
		<path id="Vector" d="M1069.47 59.67C1069.47 60.84 1068.6 61.71 1067.43 61.71C1066.26 61.71 1065.39 60.84 1065.39 59.67C1065.39 58.51 1066.26 57.64 1067.43 57.64C1068.5 57.64 1069.47 58.61 1069.47 59.67Z" fill="#FFFFFF" fill-opacity="1.000000" fill-rule="nonzero"/>
		<path id="Vector" d="M1086.76 59.67C1086.76 60.84 1085.89 61.71 1084.72 61.71C1083.56 61.71 1082.68 60.84 1082.68 59.67C1082.68 58.51 1083.56 57.64 1084.72 57.64C1085.89 57.64 1086.76 58.61 1086.76 59.67Z" fill="#FFFFFF" fill-opacity="1.000000" fill-rule="nonzero"/>
		<path id="Vector" d="M1104.15 59.67C1104.15 60.84 1103.28 61.71 1102.11 61.71C1100.94 61.71 1100.06 60.84 1100.06 59.67C1100.06 58.51 1100.94 57.64 1102.11 57.64C1103.28 57.64 1104.15 58.61 1104.15 59.67Z" fill="#FFFFFF" fill-opacity="1.000000" fill-rule="nonzero"/>
		<path id="Vector" d="M1121.54 59.67C1121.54 60.84 1120.67 61.71 1119.5 61.71C1118.32 61.71 1117.46 60.84 1117.46 59.67C1117.46 58.51 1118.32 57.64 1119.5 57.64C1120.56 57.64 1121.54 58.61 1121.54 59.67Z" fill="#FFFFFF" fill-opacity="1.000000" fill-rule="nonzero"/>
		<path id="Vector" d="M1138.93 59.67C1138.93 60.84 1138.06 61.71 1136.89 61.71C1135.72 61.71 1134.85 60.84 1134.85 59.67C1134.85 58.51 1135.72 57.64 1136.89 57.64C1138.06 57.64 1138.93 58.61 1138.93 59.67Z" fill="#FFFFFF" fill-opacity="1.000000" fill-rule="nonzero"/>
		<path id="Vector" d="M1156.22 59.67C1156.22 60.84 1155.35 61.71 1154.18 61.71C1153.02 61.71 1152.14 60.84 1152.14 59.67C1152.14 58.51 1153.02 57.64 1154.18 57.64C1155.35 57.64 1156.22 58.61 1156.22 59.67Z" fill="#FFFFFF" fill-opacity="1.000000" fill-rule="nonzero"/>
		<path id="Vector" d="M1173.61 59.67C1173.61 60.84 1172.74 61.71 1171.56 61.71C1170.41 61.71 1169.53 60.84 1169.53 59.67C1169.53 58.51 1170.41 57.64 1171.56 57.64C1172.74 57.64 1173.61 58.61 1173.61 59.67Z" fill="#FFFFFF" fill-opacity="1.000000" fill-rule="nonzero"/>
		<path id="Vector" d="M1191 59.67C1191 60.84 1190.13 61.71 1188.96 61.71C1187.79 61.71 1186.92 60.84 1186.92 59.67C1186.92 58.51 1187.79 57.64 1188.96 57.64C1190.03 57.64 1191 58.61 1191 59.67Z" fill="#FFFFFF" fill-opacity="1.000000" fill-rule="nonzero"/>
		<path id="Vector" d="M1052.07 74.13C1052.07 75.3 1051.21 76.17 1050.04 76.17C1048.87 76.17 1048 75.3 1048 74.13C1048 72.97 1048.87 72.1 1050.04 72.1C1051.21 72.1 1052.07 72.97 1052.07 74.13Z" fill="#FFFFFF" fill-opacity="1.000000" fill-rule="nonzero"/>
		<path id="Vector" d="M1069.47 74.13C1069.47 75.3 1068.6 76.17 1067.43 76.17C1066.26 76.17 1065.39 75.3 1065.39 74.13C1065.39 72.97 1066.26 72.1 1067.43 72.1C1068.5 72.1 1069.47 72.97 1069.47 74.13Z" fill="#FFFFFF" fill-opacity="1.000000" fill-rule="nonzero"/>
		<path id="Vector" d="M1086.76 74.13C1086.76 75.3 1085.89 76.17 1084.72 76.17C1083.56 76.17 1082.68 75.3 1082.68 74.13C1082.68 72.97 1083.56 72.1 1084.72 72.1C1085.89 72.1 1086.76 72.97 1086.76 74.13Z" fill="#FFFFFF" fill-opacity="1.000000" fill-rule="nonzero"/>
		<path id="Vector" d="M1104.15 74.13C1104.15 75.26 1103.24 76.17 1102.11 76.17C1100.98 76.17 1100.06 75.26 1100.06 74.13C1100.06 73.01 1100.98 72.1 1102.11 72.1C1103.24 72.1 1104.15 73.01 1104.15 74.13Z" fill="#FFFFFF" fill-opacity="1.000000" fill-rule="evenodd"/>
		<path id="Vector" d="M1121.54 74.13C1121.54 75.3 1120.67 76.17 1119.5 76.17C1118.32 76.17 1117.46 75.3 1117.46 74.13C1117.46 72.97 1118.32 72.1 1119.5 72.1C1120.56 72.1 1121.54 72.97 1121.54 74.13Z" fill="#FFFFFF" fill-opacity="1.000000" fill-rule="nonzero"/>
		<path id="Vector" d="M1138.93 74.13C1138.93 75.3 1138.06 76.17 1136.89 76.17C1135.72 76.17 1134.85 75.3 1134.85 74.13C1134.85 72.97 1135.72 72.1 1136.89 72.1C1138.06 72.1 1138.93 72.97 1138.93 74.13Z" fill="#FFFFFF" fill-opacity="1.000000" fill-rule="nonzero"/>
		<path id="Vector" d="M1156.22 74.13C1156.22 75.3 1155.35 76.17 1154.18 76.17C1153.02 76.17 1152.14 75.3 1152.14 74.13C1152.14 72.97 1153.02 72.1 1154.18 72.1C1155.35 72.1 1156.22 72.97 1156.22 74.13Z" fill="#FFFFFF" fill-opacity="1.000000" fill-rule="nonzero"/>
		<path id="Vector" d="M1173.61 74.13C1173.61 75.26 1172.69 76.17 1171.56 76.17C1170.43 76.17 1169.53 75.26 1169.53 74.13C1169.53 73.01 1170.43 72.1 1171.56 72.1C1172.69 72.1 1173.61 73.01 1173.61 74.13Z" fill="#FFFFFF" fill-opacity="1.000000" fill-rule="evenodd"/>
		<path id="Vector" d="M1191 74.13C1191 75.3 1190.13 76.17 1188.96 76.17C1187.79 76.17 1186.92 75.3 1186.92 74.13C1186.92 72.97 1187.79 72.1 1188.96 72.1C1190.03 72.1 1191 72.97 1191 74.13Z" fill="#FFFFFF" fill-opacity="1.000000" fill-rule="nonzero"/>
		<path id="Vector" d="M1052.07 88.59C1052.07 89.76 1051.21 90.63 1050.04 90.63C1048.87 90.63 1048 89.76 1048 88.59C1048 87.43 1048.87 86.56 1050.04 86.56C1051.21 86.56 1052.07 87.43 1052.07 88.59Z" fill="#FFFFFF" fill-opacity="1.000000" fill-rule="nonzero"/>
		<path id="Vector" d="M1069.47 88.59C1069.47 89.76 1068.6 90.63 1067.43 90.63C1066.26 90.63 1065.39 89.76 1065.39 88.59C1065.39 87.43 1066.26 86.56 1067.43 86.56C1068.5 86.56 1069.47 87.43 1069.47 88.59Z" fill="#FFFFFF" fill-opacity="1.000000" fill-rule="nonzero"/>
		<path id="Vector" d="M1086.76 88.59C1086.76 89.76 1085.89 90.63 1084.72 90.63C1083.56 90.63 1082.68 89.76 1082.68 88.59C1082.68 87.43 1083.56 86.56 1084.72 86.56C1085.89 86.56 1086.76 87.43 1086.76 88.59Z" fill="#FFFFFF" fill-opacity="1.000000" fill-rule="nonzero"/>
		<path id="Vector" d="M1104.15 88.59C1104.15 89.76 1103.28 90.63 1102.11 90.63C1100.94 90.63 1100.06 89.76 1100.06 88.59C1100.06 87.43 1100.94 86.56 1102.11 86.56C1103.28 86.56 1104.15 87.43 1104.15 88.59Z" fill="#FFFFFF" fill-opacity="1.000000" fill-rule="nonzero"/>
		<path id="Vector" d="M1121.54 88.59C1121.54 89.76 1120.67 90.63 1119.5 90.63C1118.32 90.63 1117.46 89.76 1117.46 88.59C1117.46 87.43 1118.32 86.56 1119.5 86.56C1120.56 86.56 1121.54 87.43 1121.54 88.59Z" fill="#FFFFFF" fill-opacity="1.000000" fill-rule="nonzero"/>
		<path id="Vector" d="M1138.93 88.59C1138.93 89.76 1138.06 90.63 1136.89 90.63C1135.72 90.63 1134.85 89.76 1134.85 88.59C1134.85 87.43 1135.72 86.56 1136.89 86.56C1138.06 86.56 1138.93 87.43 1138.93 88.59Z" fill="#FFFFFF" fill-opacity="1.000000" fill-rule="nonzero"/>
		<path id="Vector" d="M1156.22 88.59C1156.22 89.76 1155.35 90.63 1154.18 90.63C1153.02 90.63 1152.14 89.76 1152.14 88.59C1152.14 87.43 1153.02 86.56 1154.18 86.56C1155.35 86.56 1156.22 87.43 1156.22 88.59Z" fill="#FFFFFF" fill-opacity="1.000000" fill-rule="nonzero"/>
		<path id="Vector" d="M1173.61 88.59C1173.61 89.76 1172.74 90.63 1171.56 90.63C1170.41 90.63 1169.53 89.76 1169.53 88.59C1169.53 87.43 1170.41 86.56 1171.56 86.56C1172.74 86.56 1173.61 87.43 1173.61 88.59Z" fill="#FFFFFF" fill-opacity="1.000000" fill-rule="nonzero"/>
		<path id="Vector" d="M1191 88.59C1191 89.76 1190.13 90.63 1188.96 90.63C1187.79 90.63 1186.92 89.76 1186.92 88.59C1186.92 87.43 1187.79 86.56 1188.96 86.56C1190.03 86.56 1191 87.43 1191 88.59Z" fill="#FFFFFF" fill-opacity="1.000000" fill-rule="nonzero"/>
		<path id="Vector" d="M1052.07 102.96C1052.07 104.12 1051.21 105 1050.04 105C1048.87 105 1048 104.12 1048 102.96C1048 101.79 1048.87 100.92 1050.04 100.92C1051.21 100.92 1052.07 101.89 1052.07 102.96Z" fill="#FFFFFF" fill-opacity="1.000000" fill-rule="nonzero"/>
		<path id="Vector" d="M1069.47 102.96C1069.47 104.12 1068.6 105 1067.43 105C1066.26 105 1065.39 104.12 1065.39 102.96C1065.39 101.79 1066.26 100.92 1067.43 100.92C1068.5 100.92 1069.47 101.89 1069.47 102.96Z" fill="#FFFFFF" fill-opacity="1.000000" fill-rule="nonzero"/>
		<path id="Vector" d="M1086.76 102.96C1086.76 104.12 1085.89 105 1084.72 105C1083.56 105 1082.68 104.12 1082.68 102.96C1082.68 101.79 1083.56 100.92 1084.72 100.92C1085.89 100.92 1086.76 101.89 1086.76 102.96Z" fill="#FFFFFF" fill-opacity="1.000000" fill-rule="nonzero"/>
		<path id="Vector" d="M1104.15 102.96C1104.15 104.12 1103.28 105 1102.11 105C1100.94 105 1100.06 104.12 1100.06 102.96C1100.06 101.79 1100.94 100.92 1102.11 100.92C1103.28 100.92 1104.15 101.89 1104.15 102.96Z" fill="#FFFFFF" fill-opacity="1.000000" fill-rule="nonzero"/>
		<path id="Vector" d="M1121.54 102.96C1121.54 104.12 1120.67 105 1119.5 105C1118.32 105 1117.46 104.12 1117.46 102.96C1117.46 101.79 1118.32 100.92 1119.5 100.92C1120.56 100.92 1121.54 101.89 1121.54 102.96Z" fill="#FFFFFF" fill-opacity="1.000000" fill-rule="nonzero"/>
		<path id="Vector" d="M1138.93 102.96C1138.93 104.12 1138.06 105 1136.89 105C1135.72 105 1134.85 104.12 1134.85 102.96C1134.85 101.79 1135.72 100.92 1136.89 100.92C1138.06 100.92 1138.93 101.89 1138.93 102.96Z" fill="#FFFFFF" fill-opacity="1.000000" fill-rule="nonzero"/>
		<path id="Vector" d="M1156.22 102.96C1156.22 104.12 1155.35 105 1154.18 105C1153.02 105 1152.14 104.12 1152.14 102.96C1152.14 101.79 1153.02 100.92 1154.18 100.92C1155.35 100.92 1156.22 101.89 1156.22 102.96Z" fill="#FFFFFF" fill-opacity="1.000000" fill-rule="nonzero"/>
		<path id="Vector" d="M1173.61 102.96C1173.61 104.12 1172.74 105 1171.56 105C1170.41 105 1169.53 104.12 1169.53 102.96C1169.53 101.79 1170.41 100.92 1171.56 100.92C1172.74 100.92 1173.61 101.89 1173.61 102.96Z" fill="#FFFFFF" fill-opacity="1.000000" fill-rule="nonzero"/>
		<path id="Vector" d="M1191 102.96C1191 104.12 1190.13 105 1188.96 105C1187.79 105 1186.92 104.12 1186.92 102.96C1186.92 101.79 1187.79 100.92 1188.96 100.92C1190.03 100.92 1191 101.89 1191 102.96Z" fill="#FFFFFF" fill-opacity="1.000000" fill-rule="nonzero"/>
	</g>
	<g opacity="0.600000">
		<path id="Vector" d="M41 81.97C31.63 91.33 16.38 91.33 7.02 81.97C-2.35 72.61 -2.35 57.36 7.02 48L41 81.97Z" fill="#FFFFFF" fill-opacity="1.000000" fill-rule="nonzero"/>
	</g>
</svg>
