<svg width="1971.000000" height="816.000000" viewBox="0 0 1971 816" fill="none" xmlns="http://www.w3.org/2000/svg" xmlns:xlink="http://www.w3.org/1999/xlink">
	<desc>
			Created with Pixso.
	</desc>
	<defs>
		<clipPath id="clip245_503">
			<rect id="circles" width="258.000000" height="258.000000" transform="translate(1713.000000 558.000000)" fill="white" fill-opacity="0"/>
		</clipPath>
		<clipPath id="clip245_504">
			<rect id="dots" width="143.000000" height="105.000000" transform="translate(268.000000 518.000000)" fill="white" fill-opacity="0"/>
		</clipPath>
		<clipPath id="clip245_506">
			<rect id="circles" width="145.000000" height="145.000000" fill="white" fill-opacity="0"/>
		</clipPath>
	</defs>
	<g opacity="0.400000">
		<g clip-path="url(#clip245_503)">
			<path id="Vector" d="M1842.09 558C1770.73 558 1713 615.72 1713 687.08C1713 758.27 1770.73 816.17 1842.09 816.17C1913.27 816.17 1971.18 758.45 1971.18 687.08C1971 615.72 1913.27 558 1842.09 558ZM1842.09 807.85C1775.33 807.85 1721.32 753.84 1721.32 687.08C1721.32 620.33 1775.33 566.32 1842.09 566.32C1908.85 566.32 1962.85 620.33 1962.85 687.08C1962.85 753.67 1908.67 807.85 1842.09 807.85Z" fill="#FFFFFF" fill-opacity="1.000000" fill-rule="nonzero"/>
			<path id="Vector" d="M1842.09 585.8C1786.31 585.8 1740.98 631.13 1740.98 686.91C1740.98 742.68 1786.31 788.02 1842.09 788.02C1897.87 788.02 1943.2 742.86 1943.2 687.08C1943.2 631.13 1897.87 585.8 1842.09 585.8ZM1842.09 772.61C1794.81 772.61 1756.38 734.19 1756.38 686.91C1756.38 639.63 1794.81 601.2 1842.09 601.2C1889.37 601.2 1927.79 639.63 1927.79 686.91C1927.79 734.19 1889.37 772.61 1842.09 772.61Z" fill="#FFFFFF" fill-opacity="1.000000" fill-rule="nonzero"/>
		</g>
	</g>
	<g clip-path="url(#clip245_504)">
		<path id="Vector" d="M272.07 548.85C272.07 550.02 271.2 550.89 270.04 550.89C268.87 550.89 268 550.02 268 548.85C268 547.69 268.87 546.82 270.04 546.82C271.2 546.82 272.07 547.79 272.07 548.85Z" fill="#FFFFFF" fill-opacity="1.000000" fill-rule="nonzero"/>
		<path id="Vector" d="M289.47 548.85C289.47 550.02 288.59 550.89 287.43 550.89C286.26 550.89 285.39 550.02 285.39 548.85C285.39 547.69 286.26 546.82 287.43 546.82C288.49 546.82 289.47 547.79 289.47 548.85Z" fill="#FFFFFF" fill-opacity="1.000000" fill-rule="nonzero"/>
		<path id="Vector" d="M306.76 548.85C306.76 550.02 305.88 550.89 304.72 550.89C303.55 550.89 302.68 550.02 302.68 548.85C302.68 547.69 303.55 546.82 304.72 546.82C305.88 546.82 306.76 547.79 306.76 548.85Z" fill="#FFFFFF" fill-opacity="1.000000" fill-rule="nonzero"/>
		<path id="Vector" d="M324.15 548.85C324.15 550.02 323.27 550.89 322.1 550.89C320.94 550.89 320.07 550.02 320.07 548.85C320.07 547.69 320.94 546.82 322.1 546.82C323.27 546.82 324.15 547.79 324.15 548.85Z" fill="#FFFFFF" fill-opacity="1.000000" fill-rule="nonzero"/>
		<path id="Vector" d="M341.54 548.85C341.54 550.02 340.66 550.89 339.5 550.89C338.33 550.89 337.46 550.02 337.46 548.85C337.46 547.69 338.33 546.82 339.5 546.82C340.56 546.82 341.54 547.79 341.54 548.85Z" fill="#FFFFFF" fill-opacity="1.000000" fill-rule="nonzero"/>
		<path id="Vector" d="M358.93 548.85C358.93 550.02 358.05 550.89 356.89 550.89C355.72 550.89 354.85 550.02 354.85 548.85C354.85 547.69 355.72 546.82 356.89 546.82C358.05 546.82 358.93 547.79 358.93 548.85Z" fill="#FFFFFF" fill-opacity="1.000000" fill-rule="nonzero"/>
		<path id="Vector" d="M376.22 548.85C376.22 550.02 375.34 550.89 374.18 550.89C373.01 550.89 372.14 550.02 372.14 548.85C372.14 547.69 373.01 546.82 374.18 546.82C375.34 546.82 376.22 547.79 376.22 548.85Z" fill="#FFFFFF" fill-opacity="1.000000" fill-rule="nonzero"/>
		<path id="Vector" d="M393.61 548.85C393.61 550.02 392.73 550.89 391.57 550.89C390.4 550.89 389.53 550.02 389.53 548.85C389.53 547.69 390.4 546.82 391.57 546.82C392.73 546.82 393.61 547.79 393.61 548.85Z" fill="#FFFFFF" fill-opacity="1.000000" fill-rule="nonzero"/>
		<path id="Vector" d="M411 548.85C411 550.02 410.12 550.89 408.96 550.89C407.79 550.89 406.92 550.02 406.92 548.85C406.92 547.69 407.79 546.82 408.96 546.82C410.02 546.82 411 547.79 411 548.85Z" fill="#FFFFFF" fill-opacity="1.000000" fill-rule="nonzero"/>
		<path id="Vector" d="M272.07 563.31C272.07 564.48 271.2 565.35 270.04 565.35C268.87 565.35 268 564.48 268 563.31C268 562.15 268.87 561.28 270.04 561.28C271.2 561.28 272.07 562.15 272.07 563.31Z" fill="#FFFFFF" fill-opacity="1.000000" fill-rule="nonzero"/>
		<path id="Vector" d="M289.47 563.31C289.47 564.48 288.59 565.35 287.43 565.35C286.26 565.35 285.39 564.48 285.39 563.31C285.39 562.15 286.26 561.28 287.43 561.28C288.49 561.28 289.47 562.15 289.47 563.31Z" fill="#FFFFFF" fill-opacity="1.000000" fill-rule="nonzero"/>
		<path id="Vector" d="M306.76 563.31C306.76 564.48 305.88 565.35 304.72 565.35C303.55 565.35 302.68 564.48 302.68 563.31C302.68 562.15 303.55 561.28 304.72 561.28C305.88 561.28 306.76 562.15 306.76 563.31Z" fill="#FFFFFF" fill-opacity="1.000000" fill-rule="nonzero"/>
		<path id="Vector" d="M324.15 563.31C324.15 564.48 323.27 565.35 322.1 565.35C320.94 565.35 320.07 564.48 320.07 563.31C320.07 562.15 320.94 561.28 322.1 561.28C323.27 561.28 324.15 562.15 324.15 563.31Z" fill="#FFFFFF" fill-opacity="1.000000" fill-rule="nonzero"/>
		<path id="Vector" d="M341.54 563.31C341.54 564.48 340.66 565.35 339.5 565.35C338.33 565.35 337.46 564.48 337.46 563.31C337.46 562.15 338.33 561.28 339.5 561.28C340.56 561.28 341.54 562.15 341.54 563.31Z" fill="#FFFFFF" fill-opacity="1.000000" fill-rule="nonzero"/>
		<path id="Vector" d="M358.93 563.31C358.93 564.48 358.05 565.35 356.89 565.35C355.72 565.35 354.85 564.48 354.85 563.31C354.85 562.15 355.72 561.28 356.89 561.28C358.05 561.28 358.93 562.15 358.93 563.31Z" fill="#FFFFFF" fill-opacity="1.000000" fill-rule="nonzero"/>
		<path id="Vector" d="M376.22 563.31C376.22 564.48 375.34 565.35 374.18 565.35C373.01 565.35 372.14 564.48 372.14 563.31C372.14 562.15 373.01 561.28 374.18 561.28C375.34 561.28 376.22 562.15 376.22 563.31Z" fill="#FFFFFF" fill-opacity="1.000000" fill-rule="nonzero"/>
		<path id="Vector" d="M393.61 563.31C393.61 564.48 392.73 565.35 391.57 565.35C390.4 565.35 389.53 564.48 389.53 563.31C389.53 562.15 390.4 561.28 391.57 561.28C392.73 561.28 393.61 562.15 393.61 563.31Z" fill="#FFFFFF" fill-opacity="1.000000" fill-rule="nonzero"/>
		<path id="Vector" d="M411 563.31C411 564.48 410.12 565.35 408.96 565.35C407.79 565.35 406.92 564.48 406.92 563.31C406.92 562.15 407.79 561.28 408.96 561.28C410.02 561.28 411 562.15 411 563.31Z" fill="#FFFFFF" fill-opacity="1.000000" fill-rule="nonzero"/>
		<path id="Vector" d="M272.07 520.03C272.07 521.2 271.2 522.07 270.04 522.07C268.87 522.07 268 521.2 268 520.03C268 518.87 268.87 518 270.04 518C271.2 518 272.07 518.87 272.07 520.03Z" fill="#FFFFFF" fill-opacity="1.000000" fill-rule="nonzero"/>
		<path id="Vector" d="M289.47 520.03C289.47 521.2 288.59 522.07 287.43 522.07C286.26 522.07 285.39 521.2 285.39 520.03C285.39 518.87 286.26 518 287.43 518C288.49 518 289.47 518.87 289.47 520.03Z" fill="#FFFFFF" fill-opacity="1.000000" fill-rule="nonzero"/>
		<path id="Vector" d="M306.76 520.03C306.76 521.2 305.88 522.07 304.72 522.07C303.55 522.07 302.68 521.2 302.68 520.03C302.68 518.87 303.65 518 304.72 518C305.88 518 306.76 518.87 306.76 520.03Z" fill="#FFFFFF" fill-opacity="1.000000" fill-rule="nonzero"/>
		<path id="Vector" d="M324.15 520.03C324.15 521.2 323.27 522.07 322.1 522.07C320.94 522.07 320.07 521.2 320.07 520.03C320.07 518.87 321.04 518 322.1 518C323.17 518 324.15 518.87 324.15 520.03Z" fill="#FFFFFF" fill-opacity="1.000000" fill-rule="nonzero"/>
		<path id="Vector" d="M341.54 520.03C341.54 521.2 340.66 522.07 339.5 522.07C338.33 522.07 337.46 521.2 337.46 520.03C337.46 518.87 338.33 518 339.5 518C340.56 518 341.54 518.87 341.54 520.03Z" fill="#FFFFFF" fill-opacity="1.000000" fill-rule="nonzero"/>
		<path id="Vector" d="M358.93 520.03C358.93 521.2 358.05 522.07 356.89 522.07C355.72 522.07 354.85 521.2 354.85 520.03C354.85 518.87 355.72 518 356.89 518C358.05 518 358.93 518.87 358.93 520.03Z" fill="#FFFFFF" fill-opacity="1.000000" fill-rule="nonzero"/>
		<path id="Vector" d="M376.22 520.03C376.22 521.2 375.34 522.07 374.18 522.07C373.01 522.07 372.14 521.2 372.14 520.03C372.14 518.87 373.01 518 374.18 518C375.34 518 376.22 518.87 376.22 520.03Z" fill="#FFFFFF" fill-opacity="1.000000" fill-rule="nonzero"/>
		<path id="Vector" d="M393.61 520.03C393.61 521.2 392.73 522.07 391.57 522.07C390.4 522.07 389.53 521.2 389.53 520.03C389.53 518.87 390.4 518 391.57 518C392.73 518 393.61 518.87 393.61 520.03Z" fill="#FFFFFF" fill-opacity="1.000000" fill-rule="nonzero"/>
		<path id="Vector" d="M411 520.03C411 521.2 410.12 522.07 408.96 522.07C407.79 522.07 406.92 521.2 406.92 520.03C406.92 518.87 407.79 518 408.96 518C410.02 518 411 518.87 411 520.03Z" fill="#FFFFFF" fill-opacity="1.000000" fill-rule="nonzero"/>
		<path id="Vector" d="M272.07 534.49C272.07 535.66 271.2 536.53 270.04 536.53C268.87 536.53 268 535.56 268 534.49C268 533.33 268.87 532.45 270.04 532.45C271.2 532.45 272.07 533.33 272.07 534.49Z" fill="#FFFFFF" fill-opacity="1.000000" fill-rule="nonzero"/>
		<path id="Vector" d="M289.47 534.49C289.47 535.66 288.59 536.53 287.43 536.53C286.26 536.53 285.39 535.66 285.39 534.49C285.39 533.33 286.26 532.45 287.43 532.45C288.49 532.45 289.47 533.33 289.47 534.49Z" fill="#FFFFFF" fill-opacity="1.000000" fill-rule="nonzero"/>
		<path id="Vector" d="M306.76 534.49C306.76 535.66 305.88 536.53 304.72 536.53C303.55 536.53 302.68 535.66 302.68 534.49C302.68 533.33 303.55 532.45 304.72 532.45C305.88 532.45 306.76 533.33 306.76 534.49Z" fill="#FFFFFF" fill-opacity="1.000000" fill-rule="nonzero"/>
		<path id="Vector" d="M324.15 534.49C324.15 535.66 323.27 536.53 322.1 536.53C320.94 536.53 320.07 535.66 320.07 534.49C320.07 533.33 320.94 532.45 322.1 532.45C323.27 532.45 324.15 533.33 324.15 534.49Z" fill="#FFFFFF" fill-opacity="1.000000" fill-rule="nonzero"/>
		<path id="Vector" d="M341.54 534.49C341.54 535.66 340.66 536.53 339.5 536.53C338.33 536.53 337.46 535.66 337.46 534.49C337.46 533.33 338.33 532.45 339.5 532.45C340.56 532.45 341.54 533.33 341.54 534.49Z" fill="#FFFFFF" fill-opacity="1.000000" fill-rule="nonzero"/>
		<path id="Vector" d="M358.93 534.49C358.93 535.66 358.05 536.53 356.89 536.53C355.72 536.53 354.85 535.66 354.85 534.49C354.85 533.33 355.72 532.45 356.89 532.45C358.05 532.45 358.93 533.33 358.93 534.49Z" fill="#FFFFFF" fill-opacity="1.000000" fill-rule="nonzero"/>
		<path id="Vector" d="M376.22 534.49C376.22 535.66 375.34 536.53 374.18 536.53C373.01 536.53 372.14 535.66 372.14 534.49C372.14 533.33 373.01 532.45 374.18 532.45C375.34 532.45 376.22 533.33 376.22 534.49Z" fill="#FFFFFF" fill-opacity="1.000000" fill-rule="nonzero"/>
		<path id="Vector" d="M393.61 534.49C393.61 535.66 392.73 536.53 391.57 536.53C390.4 536.53 389.53 535.66 389.53 534.49C389.53 533.33 390.4 532.45 391.57 532.45C392.73 532.45 393.61 533.33 393.61 534.49Z" fill="#FFFFFF" fill-opacity="1.000000" fill-rule="nonzero"/>
		<path id="Vector" d="M411 534.49C411 535.66 410.12 536.53 408.96 536.53C407.79 536.53 406.92 535.66 406.92 534.49C406.92 533.33 407.79 532.45 408.96 532.45C410.02 532.45 411 533.33 411 534.49Z" fill="#FFFFFF" fill-opacity="1.000000" fill-rule="nonzero"/>
		<path id="Vector" d="M272.07 577.68C272.07 578.84 271.2 579.71 270.04 579.71C268.87 579.71 268 578.84 268 577.68C268 576.51 268.87 575.64 270.04 575.64C271.2 575.64 272.07 576.61 272.07 577.68Z" fill="#FFFFFF" fill-opacity="1.000000" fill-rule="nonzero"/>
		<path id="Vector" d="M289.47 577.68C289.47 578.84 288.59 579.71 287.43 579.71C286.26 579.71 285.39 578.84 285.39 577.68C285.39 576.51 286.26 575.64 287.43 575.64C288.49 575.64 289.47 576.61 289.47 577.68Z" fill="#FFFFFF" fill-opacity="1.000000" fill-rule="nonzero"/>
		<path id="Vector" d="M306.76 577.68C306.76 578.84 305.88 579.71 304.72 579.71C303.55 579.71 302.68 578.84 302.68 577.68C302.68 576.51 303.55 575.64 304.72 575.64C305.88 575.64 306.76 576.61 306.76 577.68Z" fill="#FFFFFF" fill-opacity="1.000000" fill-rule="nonzero"/>
		<path id="Vector" d="M324.15 577.68C324.15 578.84 323.27 579.71 322.1 579.71C320.94 579.71 320.07 578.84 320.07 577.68C320.07 576.51 320.94 575.64 322.1 575.64C323.27 575.64 324.15 576.61 324.15 577.68Z" fill="#FFFFFF" fill-opacity="1.000000" fill-rule="nonzero"/>
		<path id="Vector" d="M341.54 577.68C341.54 578.84 340.66 579.71 339.5 579.71C338.33 579.71 337.46 578.84 337.46 577.68C337.46 576.51 338.33 575.64 339.5 575.64C340.56 575.64 341.54 576.61 341.54 577.68Z" fill="#FFFFFF" fill-opacity="1.000000" fill-rule="nonzero"/>
		<path id="Vector" d="M358.93 577.68C358.93 578.84 358.05 579.71 356.89 579.71C355.72 579.71 354.85 578.84 354.85 577.68C354.85 576.51 355.72 575.64 356.89 575.64C358.05 575.64 358.93 576.61 358.93 577.68Z" fill="#FFFFFF" fill-opacity="1.000000" fill-rule="nonzero"/>
		<path id="Vector" d="M376.22 577.68C376.22 578.84 375.34 579.71 374.18 579.71C373.01 579.71 372.14 578.84 372.14 577.68C372.14 576.51 373.01 575.64 374.18 575.64C375.34 575.64 376.22 576.61 376.22 577.68Z" fill="#FFFFFF" fill-opacity="1.000000" fill-rule="nonzero"/>
		<path id="Vector" d="M393.61 577.68C393.61 578.84 392.73 579.71 391.57 579.71C390.4 579.71 389.53 578.84 389.53 577.68C389.53 576.51 390.4 575.64 391.57 575.64C392.73 575.64 393.61 576.61 393.61 577.68Z" fill="#FFFFFF" fill-opacity="1.000000" fill-rule="nonzero"/>
		<path id="Vector" d="M411 577.68C411 578.84 410.12 579.71 408.96 579.71C407.79 579.71 406.92 578.84 406.92 577.68C406.92 576.51 407.79 575.64 408.96 575.64C410.02 575.64 411 576.61 411 577.68Z" fill="#FFFFFF" fill-opacity="1.000000" fill-rule="nonzero"/>
		<path id="Vector" d="M272.07 592.13C272.07 593.3 271.2 594.17 270.04 594.17C268.87 594.17 268 593.3 268 592.13C268 590.97 268.87 590.1 270.04 590.1C271.2 590.1 272.07 590.97 272.07 592.13Z" fill="#FFFFFF" fill-opacity="1.000000" fill-rule="nonzero"/>
		<path id="Vector" d="M289.47 592.13C289.47 593.3 288.59 594.17 287.43 594.17C286.26 594.17 285.39 593.3 285.39 592.13C285.39 590.97 286.26 590.1 287.43 590.1C288.49 590.1 289.47 590.97 289.47 592.13Z" fill="#FFFFFF" fill-opacity="1.000000" fill-rule="nonzero"/>
		<path id="Vector" d="M306.76 592.13C306.76 593.3 305.88 594.17 304.72 594.17C303.55 594.17 302.68 593.3 302.68 592.13C302.68 590.97 303.55 590.1 304.72 590.1C305.88 590.1 306.76 590.97 306.76 592.13Z" fill="#FFFFFF" fill-opacity="1.000000" fill-rule="nonzero"/>
		<path id="Vector" d="M324.15 592.13C324.15 593.26 323.23 594.17 322.1 594.17C320.98 594.17 320.07 593.26 320.07 592.13C320.07 591.01 320.98 590.1 322.1 590.1C323.23 590.1 324.15 591.01 324.15 592.13Z" fill="#FFFFFF" fill-opacity="1.000000" fill-rule="evenodd"/>
		<path id="Vector" d="M341.54 592.13C341.54 593.3 340.66 594.17 339.5 594.17C338.33 594.17 337.46 593.3 337.46 592.13C337.46 590.97 338.33 590.1 339.5 590.1C340.56 590.1 341.54 590.97 341.54 592.13Z" fill="#FFFFFF" fill-opacity="1.000000" fill-rule="nonzero"/>
		<path id="Vector" d="M358.93 592.13C358.93 593.3 358.05 594.17 356.89 594.17C355.72 594.17 354.85 593.3 354.85 592.13C354.85 590.97 355.72 590.1 356.89 590.1C358.05 590.1 358.93 590.97 358.93 592.13Z" fill="#FFFFFF" fill-opacity="1.000000" fill-rule="nonzero"/>
		<path id="Vector" d="M376.22 592.13C376.22 593.3 375.34 594.17 374.18 594.17C373.01 594.17 372.14 593.3 372.14 592.13C372.14 590.97 373.01 590.1 374.18 590.1C375.34 590.1 376.22 590.97 376.22 592.13Z" fill="#FFFFFF" fill-opacity="1.000000" fill-rule="nonzero"/>
		<path id="Vector" d="M393.61 592.13C393.61 593.26 392.69 594.17 391.57 594.17C390.44 594.17 389.53 593.26 389.53 592.13C389.53 591.01 390.44 590.1 391.57 590.1C392.69 590.1 393.61 591.01 393.61 592.13Z" fill="#FFFFFF" fill-opacity="1.000000" fill-rule="evenodd"/>
		<path id="Vector" d="M411 592.13C411 593.3 410.12 594.17 408.96 594.17C407.79 594.17 406.92 593.3 406.92 592.13C406.92 590.97 407.79 590.1 408.96 590.1C410.02 590.1 411 590.97 411 592.13Z" fill="#FFFFFF" fill-opacity="1.000000" fill-rule="nonzero"/>
		<path id="Vector" d="M272.07 606.59C272.07 607.76 271.2 608.63 270.04 608.63C268.87 608.63 268 607.76 268 606.59C268 605.43 268.87 604.56 270.04 604.56C271.2 604.56 272.07 605.43 272.07 606.59Z" fill="#FFFFFF" fill-opacity="1.000000" fill-rule="nonzero"/>
		<path id="Vector" d="M289.47 606.59C289.47 607.76 288.59 608.63 287.43 608.63C286.26 608.63 285.39 607.76 285.39 606.59C285.39 605.43 286.26 604.56 287.43 604.56C288.49 604.56 289.47 605.43 289.47 606.59Z" fill="#FFFFFF" fill-opacity="1.000000" fill-rule="nonzero"/>
		<path id="Vector" d="M306.76 606.59C306.76 607.76 305.88 608.63 304.72 608.63C303.55 608.63 302.68 607.76 302.68 606.59C302.68 605.43 303.55 604.56 304.72 604.56C305.88 604.56 306.76 605.43 306.76 606.59Z" fill="#FFFFFF" fill-opacity="1.000000" fill-rule="nonzero"/>
		<path id="Vector" d="M324.15 606.59C324.15 607.76 323.27 608.63 322.1 608.63C320.94 608.63 320.07 607.76 320.07 606.59C320.07 605.43 320.94 604.56 322.1 604.56C323.27 604.56 324.15 605.43 324.15 606.59Z" fill="#FFFFFF" fill-opacity="1.000000" fill-rule="nonzero"/>
		<path id="Vector" d="M341.54 606.59C341.54 607.76 340.66 608.63 339.5 608.63C338.33 608.63 337.46 607.76 337.46 606.59C337.46 605.43 338.33 604.56 339.5 604.56C340.56 604.56 341.54 605.43 341.54 606.59Z" fill="#FFFFFF" fill-opacity="1.000000" fill-rule="nonzero"/>
		<path id="Vector" d="M358.93 606.59C358.93 607.76 358.05 608.63 356.89 608.63C355.72 608.63 354.85 607.76 354.85 606.59C354.85 605.43 355.72 604.56 356.89 604.56C358.05 604.56 358.93 605.43 358.93 606.59Z" fill="#FFFFFF" fill-opacity="1.000000" fill-rule="nonzero"/>
		<path id="Vector" d="M376.22 606.59C376.22 607.76 375.34 608.63 374.18 608.63C373.01 608.63 372.14 607.76 372.14 606.59C372.14 605.43 373.01 604.56 374.18 604.56C375.34 604.56 376.22 605.43 376.22 606.59Z" fill="#FFFFFF" fill-opacity="1.000000" fill-rule="nonzero"/>
		<path id="Vector" d="M393.61 606.59C393.61 607.76 392.73 608.63 391.57 608.63C390.4 608.63 389.53 607.76 389.53 606.59C389.53 605.43 390.4 604.56 391.57 604.56C392.73 604.56 393.61 605.43 393.61 606.59Z" fill="#FFFFFF" fill-opacity="1.000000" fill-rule="nonzero"/>
		<path id="Vector" d="M411 606.59C411 607.76 410.12 608.63 408.96 608.63C407.79 608.63 406.92 607.76 406.92 606.59C406.92 605.43 407.79 604.56 408.96 604.56C410.02 604.56 411 605.43 411 606.59Z" fill="#FFFFFF" fill-opacity="1.000000" fill-rule="nonzero"/>
		<path id="Vector" d="M272.07 620.96C272.07 622.12 271.2 623 270.04 623C268.87 623 268 622.12 268 620.96C268 619.79 268.87 618.92 270.04 618.92C271.2 618.92 272.07 619.89 272.07 620.96Z" fill="#FFFFFF" fill-opacity="1.000000" fill-rule="nonzero"/>
		<path id="Vector" d="M289.47 620.96C289.47 622.12 288.59 623 287.43 623C286.26 623 285.39 622.12 285.39 620.96C285.39 619.79 286.26 618.92 287.43 618.92C288.49 618.92 289.47 619.89 289.47 620.96Z" fill="#FFFFFF" fill-opacity="1.000000" fill-rule="nonzero"/>
		<path id="Vector" d="M306.76 620.96C306.76 622.12 305.88 623 304.72 623C303.55 623 302.68 622.12 302.68 620.96C302.68 619.79 303.55 618.92 304.72 618.92C305.88 618.92 306.76 619.89 306.76 620.96Z" fill="#FFFFFF" fill-opacity="1.000000" fill-rule="nonzero"/>
		<path id="Vector" d="M324.15 620.96C324.15 622.12 323.27 623 322.1 623C320.94 623 320.07 622.12 320.07 620.96C320.07 619.79 320.94 618.92 322.1 618.92C323.27 618.92 324.15 619.89 324.15 620.96Z" fill="#FFFFFF" fill-opacity="1.000000" fill-rule="nonzero"/>
		<path id="Vector" d="M341.54 620.96C341.54 622.12 340.66 623 339.5 623C338.33 623 337.46 622.12 337.46 620.96C337.46 619.79 338.33 618.92 339.5 618.92C340.56 618.92 341.54 619.89 341.54 620.96Z" fill="#FFFFFF" fill-opacity="1.000000" fill-rule="nonzero"/>
		<path id="Vector" d="M358.93 620.96C358.93 622.12 358.05 623 356.89 623C355.72 623 354.85 622.12 354.85 620.96C354.85 619.79 355.72 618.92 356.89 618.92C358.05 618.92 358.93 619.89 358.93 620.96Z" fill="#FFFFFF" fill-opacity="1.000000" fill-rule="nonzero"/>
		<path id="Vector" d="M376.22 620.96C376.22 622.12 375.34 623 374.18 623C373.01 623 372.14 622.12 372.14 620.96C372.14 619.79 373.01 618.92 374.18 618.92C375.34 618.92 376.22 619.89 376.22 620.96Z" fill="#FFFFFF" fill-opacity="1.000000" fill-rule="nonzero"/>
		<path id="Vector" d="M393.61 620.96C393.61 622.12 392.73 623 391.57 623C390.4 623 389.53 622.12 389.53 620.96C389.53 619.79 390.4 618.92 391.57 618.92C392.73 618.92 393.61 619.89 393.61 620.96Z" fill="#FFFFFF" fill-opacity="1.000000" fill-rule="nonzero"/>
		<path id="Vector" d="M411 620.96C411 622.12 410.12 623 408.96 623C407.79 623 406.92 622.12 406.92 620.96C406.92 619.79 407.79 618.92 408.96 618.92C410.02 618.92 411 619.89 411 620.96Z" fill="#FFFFFF" fill-opacity="1.000000" fill-rule="nonzero"/>
	</g>
	<g opacity="0.600000">
		<path id="Vector" d="M1173.73 141.89C1184.32 141.89 1192.96 133.16 1192.96 122.45C1192.96 111.74 1184.32 103.01 1173.73 103.01L1173.73 141.89Z" fill="#FFFFFF" fill-opacity="1.000000" fill-rule="nonzero"/>
		<path id="Vector" d="M1143.73 141.89C1154.32 141.89 1162.96 133.16 1162.96 122.45C1162.96 111.74 1154.32 103.01 1143.73 103.01L1143.73 141.89Z" fill="#FFFFFF" fill-opacity="1.000000" fill-rule="nonzero"/>
		<path id="Vector" d="M1113.73 141.89C1124.32 141.89 1132.96 133.16 1132.96 122.45C1132.96 111.74 1124.32 103.01 1113.73 103.01L1113.73 141.89Z" fill="#FFFFFF" fill-opacity="1.000000" fill-rule="nonzero"/>
	</g>
	<g opacity="0.600000">
		<g clip-path="url(#clip245_506)">
			<path id="Vector" d="M72.54 0C32.44 0 0 32.44 0 72.54C0 112.55 32.44 145.1 72.54 145.1C112.55 145.1 145.1 112.65 145.1 72.54C145 32.44 112.55 0 72.54 0ZM72.54 140.42C35.03 140.42 4.67 110.06 4.67 72.54C4.67 35.03 35.03 4.67 72.54 4.67C110.06 4.67 140.42 35.03 140.42 72.54C140.42 109.96 109.96 140.42 72.54 140.42Z" fill="#FFFFFF" fill-opacity="1.000000" fill-rule="nonzero"/>
			<path id="Vector" d="M72.54 15.62C41.2 15.62 15.72 41.1 15.72 72.45C15.72 103.79 41.2 129.27 72.54 129.27C103.89 129.27 129.37 103.89 129.37 72.55C129.37 41.1 103.89 15.62 72.54 15.62ZM72.54 120.61C45.97 120.61 24.38 99.02 24.38 72.45C24.38 45.87 45.97 24.28 72.54 24.28C99.12 24.28 120.71 45.87 120.71 72.45C120.71 99.02 99.12 120.61 72.54 120.61Z" fill="#FFFFFF" fill-opacity="1.000000" fill-rule="nonzero"/>
			<path id="Vector" d="M72.54 40.6C54.93 40.6 40.6 54.93 40.6 72.54C40.6 90.16 54.83 104.49 72.54 104.49C90.16 104.49 104.49 90.16 104.49 72.54C104.39 54.93 90.16 40.6 72.54 40.6ZM72.54 89.66C63.09 89.66 55.43 82 55.43 72.54C55.43 63.09 63.09 55.43 72.54 55.43C82 55.43 89.66 63.09 89.66 72.54C89.66 82 82 89.66 72.54 89.66Z" fill="#FFFFFF" fill-opacity="1.000000" fill-rule="nonzero"/>
		</g>
	</g>
</svg>
